<svg width="104" height="74" viewBox="0 0 104 74" fill="none" xmlns="http://www.w3.org/2000/svg">
<g id="Logo">
<path id="Vector" d="M8.47167 67.076V52H6V67.076H8.47167Z" fill="#152C4F"/>
<path id="Vector_2" d="M9.9845 62.0507C9.9845 65.1307 12.051 67.3191 15.1912 67.3191C18.3314 67.3191 20.3979 65.1307 20.3979 62.0507C20.3979 58.9706 18.3314 56.7822 15.1912 56.7822C12.051 56.7822 9.9845 58.9706 9.9845 62.0507ZM12.4764 62.0507C12.4764 60.2472 13.5502 58.9909 15.1912 58.9909C16.8322 58.9909 17.906 60.2472 17.906 62.0507C17.906 63.8338 16.8322 65.1104 15.1912 65.1104C13.5502 65.1104 12.4764 63.8338 12.4764 62.0507Z" fill="#152C4F"/>
<path id="Vector_3" d="M21.2292 61.8476C21.2292 64.7656 23.1133 66.873 25.9294 66.873C27.3881 66.873 28.6442 66.2853 29.2722 65.3127V67.0148C29.2722 68.6561 28.239 69.7504 26.5169 69.7504C24.9772 69.7504 23.9237 69.0006 23.7819 67.6835H21.29C21.6141 70.2975 23.6198 71.9996 26.3751 71.9996C29.6167 71.9996 31.6831 69.8719 31.6831 66.569V57.0655H29.4951L29.3533 58.4231C28.7455 57.3694 27.4894 56.7412 26.0104 56.7412C23.1538 56.7412 21.2292 58.9094 21.2292 61.8476ZM23.7414 61.7868C23.7414 60.1252 24.7949 58.9094 26.3549 58.9094C28.0567 58.9094 29.1912 60.1455 29.1912 61.7868C29.1912 63.4484 28.0567 64.725 26.3549 64.725C24.8151 64.725 23.7414 63.4687 23.7414 61.7868Z" fill="#152C4F"/>
<path id="Vector_4" d="M32.9062 62.0507C32.9062 65.1307 34.9727 67.3191 38.1129 67.3191C41.2531 67.3191 43.3196 65.1307 43.3196 62.0507C43.3196 58.9706 41.2531 56.7822 38.1129 56.7822C34.9727 56.7822 32.9062 58.9706 32.9062 62.0507ZM35.3982 62.0507C35.3982 60.2472 36.4719 58.9909 38.1129 58.9909C39.7539 58.9909 40.8278 60.2472 40.8278 62.0507C40.8278 63.8338 39.7539 65.1104 38.1129 65.1104C36.4719 65.1104 35.3982 63.8338 35.3982 62.0507Z" fill="#152C4F"/>
<path id="Vector_5" d="M45.9946 55.0193C46.805 55.0193 47.4736 54.3708 47.4736 53.54C47.4736 52.7295 46.805 52.0811 45.9946 52.0811C45.164 52.0811 44.5359 52.7295 44.5359 53.54C44.5359 54.3708 45.164 55.0193 45.9946 55.0193ZM44.7588 67.076H47.2305V57.0659H44.7588V67.076Z" fill="#152C4F"/>
<path id="Vector_6" d="M49.3959 71.7161H51.8067V65.6979C52.4348 66.7313 53.7922 67.3392 55.2914 67.3392C58.2493 67.3392 60.0119 65.0697 59.9713 61.9491C59.9106 58.8083 58.1075 56.7617 55.2711 56.7617C53.7517 56.7617 52.374 57.4304 51.7662 58.5854L51.6244 57.0657H49.3959V71.7161ZM51.908 62.0707C51.908 60.2673 53.0021 59.0109 54.7241 59.0109C56.4462 59.0109 57.4794 60.2875 57.4794 62.0707C57.4794 63.8539 56.4462 65.1102 54.7241 65.1102C53.0021 65.1102 51.908 63.8742 51.908 62.0707Z" fill="#152C4F"/>
<path id="Vector_7" d="M60.5989 64.0768C60.68 66.0626 62.2197 67.3392 64.6103 67.3392C66.9604 67.3392 68.5609 66.0829 68.5609 64.1376C68.5609 62.6989 67.6695 61.7262 66.0285 61.321L64.2659 60.8954C63.5163 60.6928 63.0098 60.4294 63.0098 59.781C63.0098 59.092 63.5568 58.6057 64.4482 58.6057C65.3802 58.6057 65.988 59.1325 65.988 60.0039H68.2368C68.1557 58.018 66.6768 56.7617 64.509 56.7617C62.3615 56.7617 60.761 58.018 60.761 59.9228C60.761 61.2197 61.5106 62.2936 63.4353 62.8002L65.1776 63.246C65.8259 63.4284 66.2311 63.7323 66.2311 64.2997C66.2311 65.09 65.4815 65.4547 64.5698 65.4547C63.4758 65.4547 62.8477 64.9481 62.8477 64.0768H60.5989Z" fill="#152C4F"/>
<path id="Vector_8" d="M73.6878 67.3389C75.0452 67.3389 76.3418 66.7107 76.9293 65.7786L77.0914 67.0755H79.401V57.0654H76.9293V62.3136C76.9293 64.117 76.2405 65.1302 74.6198 65.1302C73.3637 65.1302 72.4925 64.5223 72.4925 62.4554V57.0654H70.0208V63.3268C70.0208 65.7178 71.3174 67.3389 73.6878 67.3389Z" fill="#152C4F"/>
<path id="Vector_9" d="M84.0541 67.0758V61.321C84.0541 59.6999 85.0063 58.9299 86.1814 58.9299C87.3564 58.9299 88.1263 59.6796 88.1263 61.0981V67.0758H90.5372V61.3412C90.5372 59.6999 91.4691 58.9299 92.6442 58.9299C93.8395 58.9299 94.6094 59.6796 94.6094 61.0981V67.0758H97V60.5307C97 58.2207 95.7236 56.7617 93.2925 56.7617C91.773 56.7617 90.5777 57.4912 90.0915 58.6665C89.5445 57.4912 88.4505 56.7617 86.7892 56.7617C85.6141 56.7617 84.5606 57.3088 83.9731 58.2004L83.8515 57.0657H81.5825V67.0758H84.0541Z" fill="#152C4F"/>
<path id="Vector_10" d="M45.487 38.3523C42.2308 44.2121 35.6009 47 28.8971 47H2C30 43.5 49.5 29.5 52 10C54.5 29.5 74 43.5 102 47H75.1029C68.3991 47 61.7692 44.2121 58.513 38.3523C54.9886 32.01 52.7432 24.8334 52 17C51.2568 24.8334 49.0114 32.01 45.487 38.3523Z" fill="#1A4688"/>
<path id="Vector_11" d="M30.1051 36.2813C28.5344 37.1656 26.8822 37.9962 25.1522 38.7699C24.1695 35.3753 23.8079 31.8138 24.0963 28.266C24.4778 23.5725 25.9851 19.0476 28.4847 15.0923C30.9844 11.137 34.3991 7.87319 38.4265 5.59008C42.4539 3.30698 46.9697 2.07501 51.5738 2.00332C56.1779 1.93162 60.7282 3.02241 64.8217 5.17906C68.9152 7.3357 72.4255 10.4916 75.0416 14.3673C77.6578 18.243 79.2991 22.7188 79.8202 27.3982C80.2463 31.2257 79.9123 35.0929 78.8478 38.7699C77.1178 37.9962 75.4656 37.1655 73.8949 36.2812C74.5571 33.593 74.7427 30.7964 74.4342 28.0256C74.014 24.2521 72.6904 20.6428 70.5808 17.5175C68.4711 14.3922 65.6404 11.8472 62.3394 10.1081C59.0384 8.36897 55.369 7.48937 51.6563 7.54718C47.9435 7.60499 44.302 8.59845 41.0544 10.4395C37.8067 12.2806 35.053 14.9125 33.0373 18.1021C31.0216 21.2917 29.8061 24.9405 29.4985 28.7254C29.2917 31.2694 29.4993 33.8222 30.1051 36.2813Z" fill="#7FB5E6"/>
</g>
</svg>
