<svg width="174" height="40" viewBox="0 0 174 40" fill="none" xmlns="http://www.w3.org/2000/svg">
<g id="Logo" clip-path="url(#clip0_218_44826)">
<path id="Vector" d="M50.203 20.782C50.2376 20.1158 50.2376 19.4482 50.203 18.782H12.254C12.246 18.948 12.239 19.115 12.235 19.282H4.285L4.281 19.532H0V20.032H4.28L4.286 20.282H12.235C12.239 20.45 12.245 20.616 12.255 20.782H23.15C23.1086 20.4503 23.0879 20.1163 23.088 19.782H39.088C39.088 20.121 39.068 20.455 39.026 20.782H50.203ZM50.124 17.782H38.837C38.7492 17.4417 38.639 17.1077 38.507 16.782H23.672C23.541 17.106 23.43 17.439 23.342 17.782H12.332C12.35 17.615 12.37 17.448 12.392 17.282H4.442L4.476 17.038H0V16.538H4.555L4.601 16.282H12.551C12.581 16.115 12.615 15.948 12.651 15.782H49.807C49.947 16.437 50.054 17.104 50.124 17.782ZM49.564 14.782H37.334C37.0456 14.422 36.7267 14.0874 36.381 13.782H25.797C25.452 14.088 25.132 14.422 24.844 14.782H12.894C12.939 14.615 12.987 14.448 13.037 14.282H5.087L5.175 14.001H0V13.5H5.342L5.42 13.281H13.37C13.43 13.113 13.494 12.947 13.56 12.781H48.897C49.155 13.431 49.378 14.1 49.564 14.782ZM48.467 11.782H13.99C14.068 11.614 14.148 11.448 14.231 11.282H6.282L6.423 11.006H0V10.506H6.694L6.821 10.282H14.771C14.868 10.114 14.968 9.947 15.07 9.782H47.387C47.785 10.424 48.147 11.092 48.467 11.782ZM12.332 21.782H50.125C50.054 22.46 49.947 23.128 49.807 23.782H38.019C38.204 23.462 38.368 23.128 38.508 22.782H23.67C23.81 23.128 23.973 23.462 24.158 23.782H12.65C12.6144 23.6158 12.5811 23.4491 12.55 23.282H4.601C4.58471 23.1941 4.56905 23.1061 4.554 23.018H0V22.518H4.475C4.46352 22.4394 4.45252 22.3607 4.442 22.282H12.392C12.3698 22.1156 12.3498 21.9489 12.332 21.782ZM12.893 24.782H49.563C49.378 25.465 49.155 26.132 48.897 26.782H34.965C35.4717 26.5007 35.9465 26.1655 36.381 25.782H25.797C26.2315 26.1655 26.7063 26.5007 27.213 26.782H13.56C13.4944 26.6162 13.431 26.4495 13.37 26.282H5.42L5.334 26.041H0V25.541H5.168C5.14072 25.4549 5.11406 25.3685 5.088 25.282H13.037C12.987 25.116 12.939 24.95 12.893 24.782ZM13.99 27.782H48.467C48.1473 28.4697 47.7867 29.1375 47.387 29.782H15.07C14.9674 29.6169 14.8674 29.4502 14.77 29.282H6.821C6.771 29.196 6.722 29.11 6.674 29.023H0V28.523H6.405L6.282 28.283H14.232C14.1489 28.1175 14.0682 27.9508 13.99 27.783V27.782ZM16.92 32.282C17.067 32.452 17.218 32.618 17.372 32.782H45.085C45.6752 32.1531 46.2221 31.4849 46.722 30.782H15.735C15.855 30.951 15.977 31.118 16.103 31.282H8.153L8.351 31.537H0V32.037H8.76C8.829 32.12 8.899 32.201 8.97 32.282H16.92ZM20.237 35.282C20.48 35.455 20.727 35.622 20.977 35.782H41.48C42.4004 35.1909 43.2683 34.5218 44.074 33.782H18.384C18.569 33.952 18.758 34.119 18.95 34.282H11C11.108 34.374 11.217 34.464 11.327 34.552H0V35.052H11.972C12.076 35.13 12.182 35.207 12.288 35.282H20.238H20.237ZM27.254 38.366C28.536 38.639 29.865 38.782 31.228 38.782C34.282 38.782 37.167 38.062 39.723 36.782H22.733C23.089 36.96 23.45 37.127 23.817 37.282H15.867C16.009 37.342 16.152 37.401 16.295 37.458H0V37.958H17.725C19.482 38.494 21.347 38.782 23.279 38.782C24.642 38.782 25.972 38.639 27.254 38.366ZM15.735 8.782H46.722C46.2221 8.07912 45.6752 7.41092 45.085 6.782H17.372C17.218 6.946 17.067 7.112 16.919 7.282H8.97L8.794 7.488H0V7.988H8.382C8.305 8.085 8.229 8.183 8.154 8.282H16.103C15.977 8.447 15.855 8.614 15.735 8.782ZM18.383 5.782H44.073C43.2676 5.04225 42.4001 4.37312 41.48 3.782H20.977C20.727 3.943 20.48 4.11 20.237 4.282H12.288C12.178 4.361 12.068 4.44 11.96 4.521H0V5.021H11.316C11.21 5.107 11.105 5.194 11.001 5.282H18.95C18.758 5.445 18.569 5.612 18.383 5.782ZM22.734 2.782H39.724C37.0869 1.46244 34.1778 0.77755 31.229 0.782C29.865 0.782 28.536 0.926 27.254 1.199C25.9473 0.921201 24.6149 0.781434 23.279 0.782C21.145 0.782 19.094 1.134 17.179 1.782H0V2.282H23.817C23.4508 2.43722 23.0896 2.60397 22.734 2.782ZM111.248 0.5C111.905 0.5 112.421 0.664 112.796 0.992C113.187 1.305 113.382 1.742 113.382 2.306C113.382 2.869 113.187 3.314 112.796 3.642C112.421 3.955 111.905 4.112 111.248 4.112C110.592 4.112 110.068 3.955 109.677 3.642C109.302 3.314 109.114 2.869 109.114 2.306C109.114 1.743 109.302 1.306 109.677 0.992C110.068 0.664 110.592 0.5 111.248 0.5ZM113.077 6.292V16.493C113.077 17.15 113.187 17.596 113.406 17.83C113.64 18.065 114.031 18.182 114.578 18.182V18.674C114.141 18.6526 113.703 18.637 113.265 18.627C112.664 18.5955 112.061 18.5799 111.459 18.58C110.85 18.58 110.232 18.596 109.607 18.627C109.138 18.6373 108.669 18.653 108.2 18.674V18.182C108.747 18.182 109.13 18.065 109.349 17.83C109.583 17.596 109.701 17.15 109.701 16.493V9.106C109.701 8.403 109.591 7.886 109.372 7.559C109.169 7.215 108.778 7.043 108.2 7.043V6.55C108.7 6.597 109.185 6.62 109.654 6.62C110.31 6.62 110.92 6.597 111.483 6.55C112.061 6.488 112.593 6.402 113.077 6.292Z" fill="#2F2352"/>
<path id="Vector_2" fill-rule="evenodd" clip-rule="evenodd" d="M119.677 8.44403V6.29203C119.193 6.40203 118.661 6.48803 118.083 6.55003C117.504 6.59703 116.894 6.62003 116.253 6.62003C115.784 6.62003 115.3 6.59703 114.799 6.55003V7.04303C115.362 7.04303 115.753 7.21503 115.972 7.55903C116.191 7.88703 116.3 8.40303 116.3 9.10603V20.832C116.3 21.457 116.191 21.879 115.972 22.098C115.769 22.317 115.409 22.426 114.893 22.426V22.919L116.136 22.849C116.706 22.8331 117.277 22.8251 117.848 22.825C118.645 22.825 119.396 22.833 120.099 22.848C120.818 22.88 121.381 22.903 121.788 22.918V22.426C121.131 22.426 120.615 22.301 120.24 22.051C119.865 21.817 119.677 21.332 119.677 20.597V18.247C119.883 18.419 120.125 18.561 120.404 18.674C120.904 18.894 121.459 19.003 122.069 19.003C122.898 19.003 123.64 18.854 124.297 18.557C124.965 18.2633 125.552 17.8129 126.009 17.244C126.493 16.65 126.861 15.923 127.111 15.063C127.377 14.203 127.51 13.203 127.51 12.061C127.51 10.764 127.322 9.68503 126.947 8.82503C126.572 7.94903 126.071 7.30103 125.446 6.87903C124.821 6.44127 124.075 6.21139 123.312 6.22203C122.405 6.22203 121.608 6.45603 120.92 6.92503C120.379 7.29003 119.965 7.79603 119.677 8.44503V8.44403ZM119.677 9.25003V17.751C119.807 17.905 119.964 18.033 120.146 18.135C120.443 18.291 120.779 18.369 121.155 18.369C121.858 18.369 122.413 18.135 122.82 17.666C123.226 17.181 123.515 16.509 123.687 15.649C123.875 14.774 123.969 13.734 123.969 12.53C123.969 11.186 123.883 10.13 123.711 9.36403C123.539 8.59803 123.304 8.05103 123.007 7.72303C122.71 7.39403 122.351 7.23003 121.928 7.23003C121.366 7.23003 120.85 7.45003 120.381 7.88703C120.028 8.22703 119.793 8.68203 119.677 9.25003Z" fill="#2F2352"/>
<path id="Vector_3" d="M132.894 6.22191C133.551 6.22191 134.121 6.30791 134.606 6.47991C135.106 6.63591 135.466 6.79291 135.685 6.94891C136.216 7.30891 136.545 7.07391 136.67 6.24491H137.162C137.131 6.68291 137.107 7.22291 137.092 7.86291C137.076 8.48891 137.068 9.32491 137.068 10.3729H136.576C136.496 9.78656 136.346 9.21185 136.13 8.66091C135.931 8.12621 135.6 7.65024 135.169 7.27691C134.762 6.91691 134.231 6.73691 133.574 6.73691C133.121 6.73691 132.738 6.87091 132.425 7.13691C132.112 7.38691 131.956 7.75391 131.956 8.23891C131.956 8.70791 132.097 9.12191 132.378 9.48191C132.66 9.82591 133.019 10.1619 133.457 10.4899C133.91 10.8029 134.379 11.1389 134.864 11.4979C135.38 11.8889 135.849 12.2799 136.271 12.6709C136.676 13.0246 137.017 13.445 137.279 13.9139C137.53 14.3669 137.655 14.9059 137.655 15.5319C137.655 16.2349 137.451 16.8519 137.045 17.3839C136.638 17.8999 136.099 18.2989 135.427 18.5799C134.77 18.8619 134.035 19.0029 133.223 19.0029C132.796 19.0077 132.371 18.9604 131.956 18.8619C131.631 18.7809 131.316 18.6628 131.018 18.5099C130.815 18.4159 130.619 18.3299 130.432 18.2519C130.272 18.1642 130.108 18.086 129.939 18.0179C129.783 17.9709 129.642 18.0249 129.517 18.1819C129.408 18.3379 129.322 18.5569 129.259 18.8379H128.767C128.798 18.3379 128.822 17.7279 128.837 17.0089C128.853 16.2899 128.861 15.3359 128.861 14.1489H129.353C129.447 14.9929 129.619 15.7429 129.869 16.3989C130.119 17.0409 130.455 17.5489 130.877 17.9239C131.315 18.2839 131.862 18.4639 132.519 18.4639C132.785 18.4639 133.043 18.4089 133.293 18.2989C133.543 18.1889 133.746 18.0089 133.903 17.7589C134.075 17.5089 134.161 17.1889 134.161 16.7989C134.161 16.1099 133.934 15.5389 133.48 15.0859C133.043 14.6329 132.48 14.1399 131.792 13.6089C131.292 13.2019 130.815 12.8039 130.362 12.4129C129.942 12.0286 129.579 11.5865 129.283 11.0999C128.997 10.6004 128.852 10.0332 128.861 9.45791C128.861 8.75491 129.048 8.16091 129.423 7.67591C129.806 7.18585 130.318 6.8122 130.901 6.59691C131.535 6.34517 132.212 6.21786 132.894 6.22191ZM162.005 6.47991C161.598 6.30791 161.067 6.22191 160.41 6.22191C159.675 6.21444 158.949 6.39187 158.3 6.73791C157.659 7.06591 157.151 7.62091 156.775 8.40291V6.29291C156.291 6.40191 155.759 6.48791 155.181 6.54991C154.618 6.59691 154.008 6.61991 153.352 6.61991C152.883 6.61991 152.398 6.59691 151.898 6.54991V7.04291C152.476 7.04291 152.867 7.21491 153.07 7.55891C153.289 7.88691 153.398 8.40291 153.398 9.10591V16.4929C153.398 17.1499 153.281 17.5959 153.047 17.8299C152.828 18.0649 152.445 18.1819 151.898 18.1819V18.6739C152.367 18.6529 152.836 18.6372 153.305 18.6269C153.914 18.596 154.524 18.5804 155.134 18.5799C155.681 18.5799 156.213 18.5959 156.728 18.6269C157.26 18.6429 157.651 18.6589 157.901 18.6739V18.1819C157.495 18.1819 157.205 18.0649 157.033 17.8299C156.861 17.5959 156.775 17.1499 156.775 16.4929V9.97391C156.775 9.45791 156.877 8.99691 157.08 8.58991C157.299 8.16791 157.58 7.83991 157.924 7.60591C158.254 7.37572 158.647 7.25282 159.05 7.25391C159.41 7.25391 159.675 7.33991 159.847 7.51191C160.035 7.66791 160.16 7.89491 160.223 8.19191C160.285 8.47291 160.316 8.80891 160.316 9.19991V16.4929C160.316 17.1499 160.23 17.5959 160.058 17.8299C159.902 18.0649 159.613 18.1819 159.191 18.1819V18.6739C159.472 18.6589 159.886 18.6429 160.434 18.6269C161.543 18.5636 162.655 18.5636 163.764 18.6269C164.342 18.6429 164.772 18.6589 165.053 18.6739V18.1819C164.553 18.1819 164.201 18.0649 163.998 17.8299C163.795 17.5959 163.693 17.1499 163.693 16.4929V10.0779L163.692 10.0049L163.688 9.76791C163.724 9.37591 163.829 8.99336 163.998 8.63791C164.217 8.21491 164.498 7.87891 164.842 7.62891C165.186 7.37891 165.562 7.25391 165.968 7.25391C166.374 7.25391 166.672 7.33991 166.859 7.51191C167.062 7.66791 167.195 7.89491 167.258 8.19191C167.336 8.47291 167.375 8.80891 167.375 9.19991V16.4929C167.375 17.1499 167.289 17.5959 167.117 17.8299C166.961 18.0649 166.672 18.1819 166.249 18.1819V18.6739C166.531 18.6589 166.945 18.6429 167.492 18.6269C168.046 18.5954 168.602 18.5798 169.157 18.5799C169.736 18.5799 170.322 18.5959 170.916 18.6269C171.51 18.6429 171.956 18.6589 172.253 18.6739V18.1819C171.706 18.1819 171.315 18.0649 171.08 17.8299C170.861 17.5959 170.752 17.1499 170.752 16.4929V10.1849C170.752 9.40291 170.697 8.77791 170.588 8.30891C170.478 7.82391 170.299 7.43391 170.048 7.13691C169.798 6.85491 169.47 6.63691 169.063 6.47991C168.657 6.30791 168.125 6.22191 167.469 6.22191C166.672 6.22191 165.921 6.38591 165.218 6.71391C164.544 7.03591 163.998 7.64991 163.579 8.55591C163.565 8.47312 163.548 8.39076 163.529 8.30891C163.42 7.82391 163.24 7.43391 162.99 7.13691C162.74 6.85491 162.411 6.63691 162.005 6.47991ZM150.058 16.1179V6.29191C149.573 6.40191 149.042 6.48791 148.463 6.54991C147.901 6.59691 147.291 6.61991 146.634 6.61991C146.165 6.61991 145.681 6.59691 145.18 6.54991V7.04291C145.759 7.04291 146.15 7.21491 146.353 7.55891C146.572 7.88691 146.681 8.40291 146.681 9.10591V15.2499C146.681 15.7659 146.572 16.2349 146.353 16.6569C146.167 17.0433 145.884 17.3748 145.532 17.6189C145.204 17.8536 144.809 17.977 144.406 17.9709C144.016 17.9709 143.719 17.8919 143.515 17.7359C143.304 17.5515 143.157 17.3056 143.093 17.0329C143.027 16.693 142.995 16.3472 142.999 16.0009V6.29191C142.515 6.40191 141.983 6.48791 141.405 6.54991C140.842 6.59691 140.232 6.61991 139.576 6.61991C139.107 6.61991 138.622 6.59691 138.122 6.54991V7.04291C138.7 7.04291 139.091 7.21491 139.294 7.55891C139.513 7.88691 139.622 8.40291 139.622 9.10591V15.0389C139.622 15.8049 139.677 16.4309 139.787 16.9149C139.896 17.3999 140.084 17.7909 140.349 18.0879C140.584 18.3539 140.904 18.5729 141.311 18.7449C141.717 18.9159 142.249 19.0029 142.906 19.0029C143.719 19.0029 144.453 18.8379 145.11 18.5099C145.782 18.1659 146.306 17.6029 146.681 16.8219V18.9319C147.205 18.803 147.738 18.7167 148.276 18.6739C148.839 18.6269 149.448 18.6039 150.105 18.6039C150.59 18.6039 151.074 18.6269 151.559 18.6739V18.1819C150.996 18.1819 150.605 18.0179 150.386 17.6889C150.167 17.3449 150.058 16.8219 150.058 16.1189V16.1179Z" fill="#2F2352"/>
<path id="Vector_4" fill-rule="evenodd" clip-rule="evenodd" d="M104.696 6.85543C103.836 6.43343 102.835 6.22243 101.694 6.22243C100.584 6.22243 99.591 6.43343 98.716 6.85543C97.856 7.27743 97.176 7.95743 96.676 8.89543C96.191 9.83343 95.948 11.0764 95.948 12.6244C95.948 14.1724 96.191 15.4144 96.675 16.3534C97.175 17.2754 97.855 17.9474 98.715 18.3694C99.591 18.7914 100.584 19.0034 101.694 19.0034C102.835 19.0034 103.836 18.7914 104.696 18.3694C105.555 17.9474 106.228 17.2754 106.712 16.3534C107.197 15.4154 107.439 14.1724 107.439 12.6244C107.439 11.0764 107.197 9.83443 106.712 8.89543C106.228 7.95743 105.555 7.27743 104.696 6.85543ZM100.123 8.09843C100.545 7.16043 101.069 6.69143 101.694 6.69143C102.335 6.69143 102.859 7.16043 103.265 8.09843C103.687 9.02043 103.898 10.5294 103.898 12.6244C103.898 14.7194 103.687 16.2284 103.265 17.1504C102.859 18.0724 102.335 18.5344 101.694 18.5344C101.069 18.5344 100.545 18.0724 100.123 17.1504C99.701 16.2284 99.49 14.7194 99.49 12.6244C99.49 10.5294 99.7 9.02043 100.123 8.09843ZM88.301 23.0834C87.331 23.0834 86.464 22.9974 85.698 22.8254C84.948 22.6694 84.354 22.4194 83.916 22.0754C83.494 21.7464 83.283 21.3404 83.283 20.8554C83.283 20.3704 83.501 19.9334 83.939 19.5424C84.377 19.1674 85.026 18.8704 85.886 18.6514L86.096 19.0264C85.8275 19.228 85.6041 19.4835 85.44 19.7764C85.315 20.0584 85.252 20.3474 85.252 20.6444C85.252 21.3014 85.549 21.8014 86.144 22.1444C86.754 22.5044 87.574 22.6844 88.606 22.6844C89.309 22.6844 89.935 22.5904 90.482 22.4034C91.045 22.2154 91.482 21.9334 91.795 21.5594C92.124 21.1834 92.288 20.7224 92.288 20.1754C92.288 19.7064 92.116 19.3074 91.772 18.9794C91.428 18.6664 90.74 18.5104 89.708 18.5104H88.254C87.614 18.5104 87.05 18.4404 86.566 18.2994C86.096 18.1594 85.729 17.9394 85.463 17.6424C85.198 17.3304 85.065 16.9394 85.065 16.4704C85.065 15.8134 85.323 15.2354 85.839 14.7344C86.243 14.3424 86.801 13.9694 87.513 13.6164C87.0449 13.5582 86.5851 13.4458 86.143 13.2814C85.44 13.0154 84.885 12.6084 84.479 12.0614C84.072 11.5144 83.869 10.8114 83.869 9.95143C83.869 9.09143 84.072 8.38743 84.479 7.84043C84.885 7.27743 85.44 6.87043 86.144 6.62043C86.847 6.35543 87.644 6.22243 88.535 6.22243C89.427 6.22243 90.224 6.35543 90.927 6.62143C91.391 6.78543 91.789 7.01843 92.124 7.31843C92.323 7.03143 92.565 6.77543 92.85 6.55043C93.382 6.14443 93.953 5.94043 94.562 5.94043C95.062 5.94043 95.438 6.08143 95.688 6.36343C95.954 6.62843 96.087 6.98043 96.087 7.41843C96.087 7.88743 95.961 8.23843 95.711 8.47343C95.461 8.69343 95.18 8.80243 94.867 8.80243C94.5918 8.79878 94.3265 8.69903 94.117 8.52043C93.897 8.33243 93.773 8.05143 93.742 7.67643C93.715 7.34043 93.809 6.92443 94.024 6.42643C93.568 6.62043 93.216 6.84143 92.968 7.09043C92.781 7.27069 92.6177 7.47399 92.482 7.69543C92.52 7.74243 92.557 7.79143 92.592 7.84043C92.999 8.38743 93.202 9.09043 93.202 9.95043C93.202 10.8104 92.999 11.5144 92.592 12.0614C92.186 12.6084 91.631 13.0154 90.927 13.2814C90.224 13.5464 89.427 13.6794 88.535 13.6794C88.4016 13.6796 88.2682 13.6766 88.135 13.6704C87.924 13.8134 87.721 13.9654 87.527 14.1254C87.4065 14.2197 87.3098 14.3409 87.2447 14.4793C87.1796 14.6177 87.1478 14.7695 87.152 14.9224C87.152 15.4224 87.465 15.6724 88.09 15.6724H90.646C91.506 15.6724 92.272 15.7744 92.944 15.9774C93.632 16.1814 94.171 16.5174 94.562 16.9864C94.969 17.4394 95.172 18.0334 95.172 18.7684C95.172 19.5344 94.922 20.2454 94.422 20.9024C93.937 21.5594 93.187 22.0824 92.17 22.4734C91.154 22.8804 89.864 23.0834 88.301 23.0834ZM88.535 13.2574C88.958 13.2574 89.285 13.0234 89.52 12.5544C89.755 12.0694 89.872 11.2014 89.872 9.95143C89.872 8.70043 89.755 7.84043 89.52 7.37143C89.286 6.88643 88.958 6.64443 88.536 6.64443C88.129 6.64443 87.801 6.88643 87.551 7.37143C87.316 7.84043 87.199 8.70043 87.199 9.95143C87.199 11.2014 87.316 12.0694 87.551 12.5544C87.801 13.0234 88.129 13.2574 88.535 13.2574ZM80.247 6.85543C79.387 6.43343 78.387 6.22243 77.246 6.22243C76.136 6.22243 75.143 6.43343 74.268 6.85543C73.408 7.27743 72.728 7.95743 72.228 8.89543C71.743 9.83343 71.5 11.0764 71.5 12.6244C71.5 14.1724 71.743 15.4144 72.227 16.3534C72.727 17.2754 73.407 17.9474 74.267 18.3694C75.143 18.7914 76.136 19.0034 77.246 19.0034C78.387 19.0034 79.388 18.7914 80.247 18.3694C81.107 17.9474 81.779 17.2754 82.264 16.3534C82.749 15.4154 82.991 14.1724 82.991 12.6244C82.991 11.0764 82.749 9.83443 82.264 8.89543C81.78 7.95743 81.107 7.27743 80.247 6.85543ZM75.674 8.09843C76.097 7.16043 76.62 6.69143 77.246 6.69143C77.886 6.69143 78.41 7.16043 78.816 8.09843C79.239 9.02043 79.45 10.5294 79.45 12.6244C79.45 14.7194 79.239 16.2284 78.817 17.1504C78.41 18.0724 77.887 18.5344 77.246 18.5344C76.62 18.5344 76.096 18.0724 75.674 17.1504C75.252 16.2284 75.041 14.7194 75.041 12.6244C75.041 10.5294 75.252 9.02043 75.674 8.09843Z" fill="#2F2352"/>
<path id="Vector_5" d="M65.184 2.07129V2.54129C64.653 2.55629 64.246 2.61829 63.965 2.72829C63.8363 2.77184 63.7201 2.84574 63.6261 2.94374C63.5321 3.04175 63.4631 3.16096 63.425 3.29129C63.332 3.55629 63.285 3.97929 63.285 4.55729V16.4703C63.285 16.9543 63.316 17.3143 63.379 17.5493C63.457 17.7833 63.598 17.9393 63.801 18.0183C64.02 18.0963 64.341 18.1353 64.762 18.1353H65.912C66.442 18.1353 66.943 18.0103 67.412 17.7603C67.882 17.5103 68.303 17.1583 68.678 16.7043C69.0735 16.2001 69.3901 15.6386 69.617 15.0393C69.867 14.3993 70.054 13.6873 70.179 12.9053H70.719C70.672 13.4373 70.649 14.1253 70.649 14.9693C70.649 15.3293 70.656 15.8523 70.672 16.5403C70.688 17.2283 70.734 17.9403 70.812 18.6743C69.9137 18.6412 69.0149 18.6255 68.116 18.6273C67.116 18.6123 66.224 18.6043 65.442 18.6043H63.942C63.332 18.6043 62.675 18.6123 61.972 18.6273C61.268 18.6273 60.557 18.6353 59.838 18.6513C59.118 18.6513 58.438 18.6593 57.798 18.6743V18.2053C58.298 18.1743 58.673 18.1113 58.923 18.0183C59.173 17.9243 59.337 17.7363 59.416 17.4553C59.509 17.1733 59.556 16.7513 59.556 16.1883V4.55729C59.556 3.97829 59.509 3.55729 59.416 3.29129C59.3852 3.1612 59.3216 3.04117 59.2313 2.94261C59.1409 2.84406 59.0269 2.77028 58.9 2.72829C58.65 2.61829 58.282 2.55629 57.798 2.54029V2.07129C59.0324 2.11703 60.2676 2.14037 61.503 2.14129C62.191 2.14129 62.863 2.13429 63.519 2.11829C64.192 2.10229 64.747 2.08729 65.184 2.07129Z" fill="#2F2352"/>
<path id="Vector_6" fill-rule="evenodd" clip-rule="evenodd" d="M169.871 38.0527C169.838 37.8847 169.86 37.6657 169.939 37.3957L173.242 25.4287C172.713 25.6456 172.166 25.8146 171.607 25.9337C171.034 26.0467 170.377 26.1077 169.635 26.1197L169.517 26.4737C170.068 26.4737 170.411 26.5637 170.546 26.7437C170.68 26.9237 170.697 27.2037 170.596 27.5857L169.814 30.5347C169.765 30.3924 169.68 30.2651 169.568 30.1647C169.377 29.9847 169.113 29.8947 168.776 29.8947C168.102 29.8947 167.478 30.0467 166.905 30.3497C166.329 30.6646 165.81 31.0751 165.371 31.5637C164.91 32.0588 164.519 32.6146 164.208 33.2157C163.902 33.8006 163.659 34.4164 163.483 35.0527C163.323 35.6008 163.238 36.1679 163.23 36.7387C163.23 37.2777 163.315 37.7217 163.483 38.0697C163.652 38.4067 163.882 38.6597 164.174 38.8277C164.466 38.9857 164.792 39.0637 165.152 39.0637C165.702 39.0637 166.197 38.9017 166.635 38.5757C167.073 38.2387 167.483 37.7217 167.866 37.0247C168.026 36.7407 168.187 36.4217 168.347 36.0677L168.236 36.4857C168.134 36.815 168.067 37.1537 168.034 37.4967C168.012 37.7887 168.034 38.0367 168.102 38.2387C168.236 38.7887 168.652 39.0647 169.349 39.0647C169.607 39.0647 169.871 39.0137 170.141 38.9127C170.411 38.8117 170.663 38.6377 170.899 38.3897C171.147 38.1427 171.343 37.7897 171.489 37.3277L171.894 36.0977H171.574L171.304 36.8557C171.102 37.4297 170.911 37.8167 170.731 38.0187C170.562 38.2107 170.388 38.3057 170.208 38.3057C170.017 38.3057 169.905 38.2217 169.871 38.0527ZM168.972 33.7127C168.845 34.1237 168.707 34.5147 168.557 34.8837C168.276 35.6037 167.978 36.2217 167.663 36.7387C167.36 37.2437 167.062 37.6367 166.77 37.9187C166.478 38.1877 166.219 38.3227 165.995 38.3227C165.781 38.3227 165.624 38.2217 165.523 38.0197C165.433 37.8057 165.388 37.4857 165.388 37.0587C165.388 36.4517 165.455 35.8337 165.59 35.2047C165.725 34.5647 165.91 33.9517 166.146 33.3677C166.363 32.8196 166.634 32.2944 166.955 31.7997C167.259 31.3277 167.579 30.9567 167.916 30.6867C168.264 30.4167 168.607 30.2827 168.944 30.2827C169.169 30.2827 169.349 30.3617 169.484 30.5187C169.578 30.6207 169.65 30.7687 169.7 30.9647L168.972 33.7127Z" fill="#2F2352"/>
<path id="Vector_7" d="M158.655 38.8276H156.582L158.604 31.5636C158.706 31.2266 158.739 30.9906 158.706 30.8556C158.672 30.7206 158.571 30.6536 158.402 30.6536C158.189 30.6536 157.992 30.7606 157.812 30.9736C157.632 31.1866 157.447 31.5636 157.256 32.1036L156.969 32.8946H156.649L157.087 31.6306C157.245 31.1806 157.441 30.8336 157.677 30.5856C157.913 30.3276 158.172 30.1476 158.453 30.0466C158.734 29.9456 159.02 29.8946 159.312 29.8946C159.672 29.8946 159.936 29.9676 160.104 30.1146C160.284 30.2606 160.397 30.4516 160.442 30.6876C160.499 30.9419 160.51 31.2043 160.475 31.4626C160.453 31.7326 160.408 31.9966 160.34 32.2546L160.069 33.3116L160.138 33.1316C160.453 32.3336 160.756 31.6986 161.048 31.2266C161.352 30.7436 161.672 30.4006 162.009 30.1986C162.339 29.9979 162.719 29.8926 163.105 29.8946C163.509 29.8946 163.818 30.0126 164.032 30.2486C164.257 30.4846 164.369 30.7766 164.369 31.1256C164.369 31.4056 164.301 31.6706 164.167 31.9176C164.036 32.1493 163.851 32.3459 163.627 32.4906C163.414 32.6256 163.167 32.6926 162.886 32.6926C162.605 32.6926 162.38 32.6196 162.211 32.4736C162.054 32.3276 161.975 32.1136 161.975 31.8336C161.975 31.5856 162.032 31.3616 162.144 31.1586C162.252 30.9609 162.402 30.7887 162.582 30.6536C162.762 30.5076 162.959 30.4066 163.172 30.3496C163.148 30.3264 163.12 30.3092 163.088 30.2996C163.05 30.2877 163.01 30.2819 162.97 30.2826C162.723 30.2826 162.47 30.3726 162.211 30.5526C161.953 30.7206 161.683 30.9966 161.402 31.3786C161.121 31.7606 160.835 32.2656 160.543 32.8946C160.213 33.6383 159.921 34.3979 159.666 35.1706C159.539 35.5446 159.411 35.9466 159.283 36.3776L158.655 38.8276Z" fill="#2F2352"/>
<path id="Vector_8" fill-rule="evenodd" clip-rule="evenodd" d="M152.357 36.2237L152.286 36.4857C152.18 36.8663 152.106 37.2554 152.067 37.6487C152.033 38.0087 152.089 38.3117 152.235 38.5587C152.46 38.8957 152.842 39.0647 153.381 39.0647C153.64 39.0647 153.898 39.0137 154.157 38.9127C154.426 38.8117 154.679 38.6377 154.915 38.3897C155.151 38.1317 155.348 37.7717 155.505 37.3117L155.927 36.0817H155.606L155.353 36.8397C155.151 37.4237 154.955 37.8117 154.764 38.0027C154.573 38.1927 154.387 38.2887 154.207 38.2887C154.061 38.2887 153.966 38.2437 153.921 38.1537C153.886 38.0392 153.874 37.9188 153.887 37.7997C153.909 37.6568 153.943 37.516 153.988 37.3787L156.163 29.8947C155.825 29.9756 155.481 30.0321 155.134 30.0637C154.786 30.0977 154.41 30.1197 154.005 30.1307L153.761 31.0327C153.751 30.8037 153.684 30.5808 153.567 30.3837C153.479 30.2301 153.351 30.1034 153.197 30.0172C153.042 29.931 152.867 29.8887 152.69 29.8947C152.196 29.8947 151.702 30.0467 151.207 30.3497C150.681 30.6803 150.209 31.0897 149.808 31.5637C149.354 32.0806 148.959 32.6456 148.628 33.2487C148.297 33.8535 148.031 34.4922 147.836 35.1537C147.652 35.7489 147.556 36.3678 147.55 36.9907C147.55 37.6207 147.696 38.1257 147.988 38.5077C148.28 38.8787 148.729 39.0637 149.336 39.0637C149.763 39.0637 150.173 38.9407 150.567 38.6937C150.971 38.4457 151.353 38.0357 151.713 37.4637C151.936 37.1187 152.15 36.7057 152.357 36.2237ZM150.904 37.9347C150.645 38.1707 150.415 38.2887 150.213 38.2887C150.044 38.2887 149.915 38.2047 149.825 38.0357C149.746 37.8557 149.707 37.5587 149.707 37.1427C149.707 36.5467 149.774 35.9347 149.909 35.3057C150.044 34.6757 150.224 34.0697 150.449 33.4857C150.685 32.9007 150.943 32.3787 151.224 31.9177C151.505 31.4577 151.786 31.0917 152.067 30.8217C152.359 30.5517 152.634 30.4177 152.893 30.4177C153.162 30.4177 153.353 30.5527 153.466 30.8217C153.578 31.0657 153.607 31.3927 153.553 31.8017L153.055 33.6437L153.112 33.3507C152.932 34.0697 152.718 34.7327 152.471 35.3397C152.256 35.8824 151.997 36.4065 151.696 36.9067C151.426 37.3447 151.162 37.6877 150.904 37.9347ZM145.284 37.3957C145.205 37.6657 145.183 37.8847 145.217 38.0527C145.25 38.2217 145.363 38.3057 145.554 38.3057C145.734 38.3057 145.908 38.2107 146.076 38.0197C146.256 37.8167 146.447 37.4297 146.649 36.8557L146.919 36.0977H147.239L146.835 37.3277C146.689 37.7887 146.492 38.1427 146.245 38.3897C146.035 38.6194 145.775 38.7983 145.486 38.9127C145.233 39.0108 144.965 39.0623 144.694 39.0647C143.998 39.0647 143.582 38.7887 143.447 38.2387C143.376 37.9982 143.353 37.746 143.38 37.4967C143.402 37.2047 143.469 36.8667 143.582 36.4857L143.693 36.0677C143.532 36.4217 143.371 36.7407 143.211 37.0247C142.829 37.7217 142.419 38.2387 141.981 38.5747C141.554 38.8973 141.032 39.0695 140.497 39.0647C140.138 39.0647 139.812 38.9847 139.52 38.8287C139.219 38.6506 138.978 38.3862 138.829 38.0697C138.66 37.7217 138.576 37.2777 138.576 36.7387C138.576 36.2217 138.66 35.6587 138.829 35.0527C138.997 34.4347 139.239 33.8227 139.553 33.2157C139.864 32.6148 140.255 32.0591 140.716 31.5637C141.177 31.0577 141.688 30.6537 142.25 30.3497C142.826 30.0456 143.469 29.8892 144.121 29.8947C144.458 29.8947 144.722 29.9847 144.913 30.1647C145.023 30.2617 145.106 30.3847 145.16 30.5347L145.941 27.5857C146.043 27.2037 146.026 26.9227 145.891 26.7427C145.756 26.5627 145.413 26.4727 144.863 26.4727L144.981 26.1197C145.643 26.1159 146.302 26.0537 146.953 25.9337C147.512 25.8146 148.059 25.6456 148.588 25.4287L145.284 37.3957ZM143.902 34.8837C144.052 34.5137 144.191 34.1237 144.317 33.7127L145.046 30.9647C145.011 30.8007 144.936 30.6476 144.829 30.5187C144.763 30.4412 144.68 30.3798 144.587 30.3389C144.493 30.298 144.392 30.2788 144.29 30.2827C143.953 30.2827 143.61 30.4177 143.262 30.6867C142.924 30.9567 142.604 31.3277 142.301 31.7997C141.98 32.2939 141.709 32.8188 141.492 33.3667C141.253 33.9617 141.066 34.5768 140.936 35.2047C140.803 35.8138 140.735 36.4353 140.733 37.0587C140.733 37.4857 140.778 37.8057 140.868 38.0187C140.969 38.2217 141.127 38.3227 141.34 38.3227C141.565 38.3227 141.823 38.1877 142.115 37.9177C142.408 37.6377 142.705 37.2437 143.009 36.7377C143.359 36.1464 143.658 35.5262 143.902 34.8837Z" fill="#2F2352"/>
<path id="Vector_9" d="M129.294 38.8275H131.367L131.562 38.0655L131.552 38.1205C131.766 37.3335 132.007 36.5755 132.277 35.8445C132.539 35.1469 132.831 34.4609 133.153 33.7885C133.457 33.1585 133.76 32.6085 134.064 32.1365C134.367 31.6645 134.659 31.2995 134.94 31.0405C135.221 30.7705 135.479 30.6365 135.715 30.6365C135.906 30.6365 136.024 30.7035 136.069 30.8385C136.116 30.9917 136.121 31.1544 136.086 31.3105C136.052 31.4932 136.007 31.6735 135.951 31.8505L134.418 36.4855C134.26 36.9575 134.17 37.3615 134.148 37.6985C134.125 38.0355 134.187 38.3115 134.333 38.5245C134.446 38.6935 134.603 38.8225 134.805 38.9125C135.019 39.0125 135.272 39.0645 135.564 39.0645C135.833 39.0645 136.103 39.0135 136.373 38.9125C136.654 38.8225 136.912 38.6535 137.148 38.4065C137.395 38.1595 137.598 37.7995 137.755 37.3275L138.176 36.0975H137.856L137.586 36.8555C137.373 37.4405 137.171 37.8275 136.98 38.0185C136.8 38.2105 136.626 38.3055 136.457 38.3055C136.277 38.3055 136.165 38.2325 136.12 38.0855C136.075 37.9295 136.103 37.6985 136.204 37.3955L137.856 32.4395C138.002 32.0015 138.075 31.5915 138.075 31.2095C138.086 30.8165 137.98 30.5015 137.755 30.2655C137.541 30.0185 137.159 29.8955 136.609 29.8955C136.193 29.8955 135.794 29.9855 135.412 30.1645C135.03 30.3445 134.659 30.6585 134.3 31.1085C133.94 31.5465 133.569 32.1425 133.187 32.8945C132.933 33.4018 132.701 33.9192 132.49 34.4455L133.052 32.2545C133.12 31.9845 133.17 31.7145 133.204 31.4455C133.238 31.1655 133.226 30.9115 133.17 30.6865C133.116 30.4542 132.978 30.25 132.783 30.1135C132.592 29.9675 132.311 29.8945 131.94 29.8945C131.49 29.8945 131.08 30.0185 130.709 30.2655C130.339 30.5125 130.035 30.9675 129.799 31.6305L129.361 32.8945H129.681L129.968 32.1025C130.17 31.5525 130.355 31.1755 130.524 30.9735C130.704 30.7605 130.9 30.6535 131.114 30.6535C131.271 30.6535 131.367 30.6985 131.401 30.7885C131.445 30.8785 131.457 30.9905 131.434 31.1255C131.409 31.2734 131.375 31.4196 131.333 31.5635L129.294 38.8275Z" fill="#2F2352"/>
<path id="Vector_10" fill-rule="evenodd" clip-rule="evenodd" d="M124.998 36.4855L125.069 36.2235C124.889 36.6539 124.674 37.0687 124.425 37.4635C124.065 38.0355 123.683 38.4465 123.278 38.6935C122.885 38.9405 122.475 39.0635 122.048 39.0635C121.441 39.0635 120.992 38.8785 120.7 38.5075C120.407 38.1255 120.261 37.6205 120.261 36.9905C120.261 36.4065 120.357 35.7945 120.548 35.1535C120.743 34.492 121.008 33.8533 121.34 33.2485C121.67 32.6452 122.066 32.0802 122.52 31.5635C122.921 31.0896 123.393 30.6801 123.919 30.3495C124.413 30.0465 124.908 29.8945 125.402 29.8945C125.784 29.8945 126.076 30.0575 126.279 30.3845C126.387 30.5515 126.452 30.7675 126.473 31.0325L126.717 30.1305C127.121 30.1195 127.498 30.0975 127.846 30.0635C128.206 30.0295 128.548 29.9735 128.874 29.8945L126.7 37.3795C126.654 37.5167 126.62 37.6575 126.599 37.8005C126.586 37.9196 126.598 38.0401 126.633 38.1545C126.678 38.2445 126.773 38.2895 126.919 38.2895C127.099 38.2895 127.284 38.1945 127.475 38.0035C127.666 37.8125 127.863 37.4235 128.065 36.8405L128.318 36.0815H128.638L128.217 37.3115C128.06 37.7725 127.863 38.1315 127.627 38.3915C127.417 38.6206 127.158 38.7991 126.869 38.9135C126.622 39.0125 126.359 39.064 126.093 39.0655C125.554 39.0655 125.172 38.8965 124.947 38.5595C124.801 38.3125 124.745 38.0095 124.779 37.6495C124.818 37.2563 124.892 36.8661 124.998 36.4855ZM122.924 38.2885C123.127 38.2885 123.357 38.1705 123.616 37.9345C123.874 37.6875 124.138 37.3445 124.408 36.9065C124.677 36.4685 124.936 35.9465 125.183 35.3395C125.43 34.7325 125.644 34.0695 125.824 33.3495L125.767 33.6435L126.265 31.8025C126.318 31.3925 126.289 31.0655 126.178 30.8225C126.065 30.5525 125.874 30.4175 125.604 30.4175C125.346 30.4175 125.071 30.5525 124.779 30.8215C124.498 31.0915 124.217 31.4565 123.936 31.9175C123.655 32.3775 123.396 32.9005 123.16 33.4845C122.934 34.0764 122.753 34.6849 122.621 35.3045C122.489 35.9083 122.421 36.5244 122.419 37.1425C122.419 37.5585 122.458 37.8565 122.537 38.0355C122.627 38.2045 122.756 38.2885 122.924 38.2885Z" fill="#2F2352"/>
<path id="Vector_11" d="M121.43 30.4682L121.481 30.1312H119.473L120.267 27.3672C119.935 27.449 119.597 27.5055 119.256 27.5362C118.908 27.5692 118.531 27.5922 118.127 27.6032L117.402 30.1312H115.868L115.784 30.4682H117.306L115.581 36.4862C115.435 36.9802 115.385 37.4242 115.43 37.8172C115.486 38.1992 115.643 38.5032 115.902 38.7272C116.171 38.9522 116.559 39.0652 117.065 39.0652C117.638 39.0652 118.132 38.9132 118.548 38.6092C118.964 38.3062 119.29 37.8062 119.526 37.1092L119.863 36.0982H119.542L119.29 36.7892C119.087 37.3512 118.863 37.7442 118.615 37.9692C118.379 38.1942 118.143 38.3062 117.907 38.3062C117.814 38.3093 117.722 38.291 117.637 38.2529C117.553 38.2147 117.478 38.1577 117.419 38.0862C117.306 37.9412 117.295 37.7112 117.385 37.3962L119.376 30.4682H121.43ZM115.848 26.7772C115.736 27.0692 115.584 27.4972 115.393 28.0582C115.213 28.6082 115.034 29.3282 114.854 30.2152H114.517C114.55 30.0582 114.573 29.8952 114.584 29.7272C114.606 29.5764 114.617 29.4244 114.618 29.2722C114.618 28.8332 114.528 28.4522 114.348 28.1262C114.175 27.7843 113.898 27.5065 113.556 27.3332C113.208 27.1312 112.758 27.0302 112.208 27.0302C111.612 27.0302 111.106 27.1872 110.691 27.5022C110.275 27.8052 110.067 28.2942 110.067 28.9682C110.067 29.3842 110.162 29.7782 110.353 30.1482C110.556 30.5082 110.809 30.8622 111.112 31.2102C111.427 31.5472 111.758 31.8902 112.106 32.2382C112.455 32.5752 112.781 32.9242 113.084 33.2832C113.387 33.6432 113.635 34.0252 113.826 34.4292C114.028 34.8232 114.129 35.2552 114.129 35.7272C114.129 36.3232 113.983 36.8342 113.691 37.2612C113.406 37.6806 113.032 38.0317 112.595 38.2892C112.137 38.551 111.643 38.7441 111.129 38.8622C110.634 38.9944 110.124 39.0626 109.612 39.0652C109.106 39.0652 108.685 39.0252 108.348 38.9472C108.06 38.8929 107.782 38.7962 107.522 38.6602C107.301 38.5392 107.082 38.4159 106.864 38.2902C106.765 38.2069 106.65 38.1437 106.527 38.1042C106.448 38.0647 106.363 38.0416 106.275 38.0362C106.128 38.0362 106.005 38.1092 105.904 38.2562C105.771 38.4757 105.659 38.7066 105.567 38.9462H105.229C105.507 38.2608 105.739 37.5571 105.921 36.8402C106.055 36.3232 106.207 35.6772 106.376 34.9012H106.713C106.666 35.1244 106.627 35.3492 106.595 35.5752C106.561 35.8002 106.55 36.0252 106.561 36.2502C106.595 37.0362 106.836 37.6432 107.286 38.0702C107.747 38.4972 108.421 38.7102 109.308 38.7102C110.061 38.7102 110.629 38.5532 111.011 38.2392C111.393 37.9132 111.584 37.4412 111.584 36.8232C111.584 36.3512 111.494 35.9232 111.314 35.5422C111.144 35.1459 110.917 34.7766 110.64 34.4462C110.354 34.1043 110.056 33.7727 109.747 33.4522C109.437 33.1316 109.139 32.7997 108.853 32.4572C108.577 32.1168 108.345 31.7433 108.162 31.3452C107.978 30.9196 107.886 30.4598 107.893 29.9962C107.893 29.4352 108.011 28.9462 108.247 28.5302C108.485 28.1244 108.806 27.774 109.19 27.5022C109.584 27.2212 110.023 27.0101 110.488 26.8782C110.941 26.7352 111.412 26.6614 111.887 26.6592C112.494 26.6592 112.994 26.7322 113.387 26.8792C113.781 27.0242 114.118 27.1992 114.399 27.4012L114.719 27.6032C114.82 27.6482 114.899 27.6702 114.955 27.6702C115.112 27.6702 115.298 27.3732 115.511 26.7772H115.848Z" fill="#2F2352"/>
<path id="Vector_12" fill-rule="evenodd" clip-rule="evenodd" d="M99.578 38.0527C99.544 37.8847 99.567 37.6657 99.646 37.3957L102.949 25.4287C102.42 25.6456 101.873 25.8146 101.314 25.9337C100.741 26.0467 100.084 26.1077 99.342 26.1197L99.224 26.4737C99.774 26.4737 100.118 26.5637 100.252 26.7437C100.387 26.9237 100.404 27.2037 100.303 27.5857L99.521 30.5347C99.4719 30.3924 99.3872 30.2651 99.275 30.1647C99.084 29.9847 98.82 29.8947 98.483 29.8947C97.808 29.8947 97.185 30.0467 96.612 30.3497C96.0356 30.6646 95.5169 31.0751 95.078 31.5637C94.6169 32.0588 94.2256 32.6146 93.915 33.2157C93.6089 33.8006 93.3659 34.4164 93.19 35.0527C93.03 35.6007 92.9449 36.1679 92.937 36.7387C92.937 37.2777 93.022 37.7217 93.19 38.0697C93.359 38.4067 93.589 38.6597 93.881 38.8277C94.173 38.9857 94.499 39.0637 94.859 39.0637C95.409 39.0637 95.904 38.9017 96.342 38.5757C96.78 38.2387 97.19 37.7217 97.572 37.0247C97.732 36.7407 97.893 36.4217 98.054 36.0677L97.944 36.4857C97.8418 36.8148 97.7737 37.1536 97.741 37.4967C97.7142 37.746 97.7369 37.9982 97.808 38.2387C97.943 38.7887 98.358 39.0647 99.056 39.0647C99.314 39.0647 99.578 39.0137 99.848 38.9127C100.118 38.8117 100.37 38.6377 100.606 38.3897C100.854 38.1427 101.05 37.7897 101.196 37.3277L101.601 36.0977H101.281L101.011 36.8557C100.809 37.4297 100.618 37.8167 100.438 38.0187C100.269 38.2107 100.095 38.3057 99.915 38.3057C99.725 38.3057 99.612 38.2217 99.578 38.0527ZM98.678 33.7127C98.552 34.1237 98.414 34.5147 98.263 34.8837C97.983 35.6037 97.685 36.2217 97.37 36.7387C97.067 37.2437 96.769 37.6367 96.477 37.9187C96.185 38.1877 95.927 38.3227 95.701 38.3227C95.488 38.3227 95.331 38.2217 95.23 38.0197C95.14 37.8057 95.095 37.4857 95.095 37.0587C95.095 36.4517 95.162 35.8337 95.297 35.2047C95.432 34.5647 95.617 33.9517 95.853 33.3677C96.0705 32.8195 96.3418 32.2943 96.663 31.7997C96.966 31.3277 97.286 30.9567 97.623 30.6867C97.971 30.4167 98.314 30.2827 98.651 30.2827C98.876 30.2827 99.056 30.3617 99.191 30.5187C99.285 30.6207 99.357 30.7687 99.407 30.9647L98.678 33.7127Z" fill="#2F2352"/>
<path id="Vector_13" d="M85.728 38.8275H83.655L85.695 31.5635C85.74 31.4065 85.773 31.2605 85.795 31.1255C85.8201 31.0125 85.8085 30.8945 85.762 30.7885C85.728 30.6985 85.632 30.6535 85.475 30.6535C85.262 30.6535 85.065 30.7605 84.885 30.9735C84.717 31.1755 84.531 31.5525 84.329 32.1035L84.043 32.8945H83.723L84.161 31.6305C84.397 30.9675 84.701 30.5125 85.071 30.2655C85.441 30.0185 85.851 29.8955 86.301 29.8955C86.672 29.8955 86.953 29.9675 87.144 30.1135C87.3399 30.2499 87.4782 30.4541 87.532 30.6865C87.588 30.9115 87.599 31.1645 87.566 31.4455C87.5317 31.718 87.4809 31.9882 87.414 32.2545L86.852 34.4465C87.09 33.8575 87.322 33.3415 87.549 32.8945C87.931 32.1425 88.301 31.5465 88.661 31.1085C89.021 30.6585 89.391 30.3445 89.773 30.1645C90.156 29.9845 90.554 29.8945 90.97 29.8945C91.52 29.8945 91.903 30.0185 92.116 30.2655C92.341 30.5015 92.448 30.8155 92.436 31.2095C92.436 31.5915 92.364 32.0015 92.217 32.4395L90.566 37.3955C90.464 37.6985 90.436 37.9295 90.481 38.0855C90.526 38.2325 90.639 38.3055 90.819 38.3055C90.987 38.3055 91.161 38.2105 91.341 38.0195C91.532 37.8275 91.734 37.4395 91.948 36.8555L92.218 36.0975H92.538L92.116 37.3275C91.959 37.7995 91.756 38.1595 91.51 38.4075C91.2982 38.6388 91.0312 38.8125 90.734 38.9125C90.4758 39.0116 90.2017 39.0631 89.925 39.0645C89.633 39.0645 89.38 39.0135 89.167 38.9125C88.964 38.8225 88.807 38.6925 88.695 38.5245C88.549 38.3115 88.487 38.0355 88.509 37.6985C88.532 37.3615 88.622 36.9575 88.779 36.4855L90.313 31.8505C90.369 31.6705 90.414 31.4905 90.448 31.3105C90.4834 31.1544 90.4775 30.9917 90.431 30.8385C90.386 30.7035 90.268 30.6365 90.077 30.6365C89.841 30.6365 89.582 30.7715 89.302 31.0405C89.021 31.2995 88.728 31.6645 88.425 32.1365C88.0887 32.6684 87.7848 33.22 87.515 33.7885C87.212 34.4185 86.919 35.1025 86.638 35.8445C86.368 36.5745 86.128 37.3335 85.914 38.1205L85.924 38.0655L85.728 38.8275Z" fill="#2F2352"/>
<path id="Vector_14" fill-rule="evenodd" clip-rule="evenodd" d="M79.43 36.2241L79.36 36.4861C79.2539 36.8668 79.1803 37.2559 79.14 37.6491C79.106 38.0091 79.162 38.3121 79.308 38.5591C79.533 38.8961 79.915 39.0651 80.455 39.0651C80.7432 39.063 81.028 39.0021 81.2918 38.886C81.5555 38.7699 81.7928 38.6012 81.989 38.3901C82.225 38.1321 82.421 37.7721 82.579 37.3121L82.999 36.0821H82.679L82.427 36.8401C82.224 37.4241 82.027 37.8121 81.837 38.0031C81.646 38.1931 81.46 38.2891 81.281 38.2891C81.134 38.2891 81.039 38.2441 80.994 38.1541C80.9589 38.0396 80.9473 37.9191 80.96 37.8001C80.983 37.6541 81.016 37.5141 81.062 37.3791L83.236 29.8951C82.8979 29.9759 82.5543 30.0324 82.208 30.0641C81.859 30.0981 81.483 30.1201 81.078 30.1311L80.834 31.0331C80.8236 30.8041 80.757 30.5812 80.64 30.3841C80.5523 30.2306 80.4244 30.104 80.27 30.0178C80.1157 29.9316 79.9407 29.8892 79.764 29.8951C79.269 29.8951 78.774 30.0471 78.28 30.3501C77.786 30.6541 77.32 31.0581 76.881 31.5641C76.427 32.0807 76.0313 32.6458 75.701 33.2491C75.3696 33.8539 75.104 34.4925 74.909 35.1541C74.7252 35.7493 74.6288 36.3681 74.623 36.9911C74.623 37.6211 74.769 38.1261 75.061 38.5081C75.353 38.8791 75.803 39.0641 76.409 39.0641C76.836 39.0641 77.247 38.9411 77.639 38.6941C78.044 38.4461 78.427 38.0361 78.786 37.4641C79.009 37.1191 79.223 36.7061 79.43 36.2241ZM77.977 37.9351C77.719 38.1711 77.488 38.2891 77.286 38.2891C77.117 38.2891 76.988 38.2051 76.898 38.0361C76.82 37.8561 76.78 37.5591 76.78 37.1431C76.78 36.5471 76.848 35.9351 76.983 35.3061C77.117 34.6761 77.297 34.0701 77.522 33.4861C77.758 32.9011 78.016 32.3791 78.297 31.9181C78.578 31.4581 78.859 31.0921 79.14 30.8221C79.432 30.5521 79.707 30.4181 79.966 30.4181C80.236 30.4181 80.426 30.5531 80.539 30.8221C80.651 31.0661 80.679 31.3931 80.626 31.8021L80.128 33.6441L80.185 33.3511C80.005 34.0701 79.792 34.7331 79.545 35.3401C79.297 35.9461 79.039 36.4691 78.769 36.9071C78.499 37.3451 78.235 37.6881 77.977 37.9351Z" fill="#2F2352"/>
<path id="Vector_15" d="M70.115 38.8276H68.042L70.064 31.5636C70.165 31.2266 70.199 30.9906 70.165 30.8556C70.132 30.7206 70.031 30.6536 69.862 30.6536C69.649 30.6536 69.452 30.7606 69.272 30.9736C69.092 31.1866 68.907 31.5636 68.716 32.1036L68.429 32.8946H68.109L68.547 31.6306C68.705 31.1806 68.901 30.8336 69.137 30.5856C69.373 30.3276 69.632 30.1476 69.913 30.0466C70.193 29.9456 70.48 29.8946 70.773 29.8946C71.132 29.8946 71.396 29.9676 71.564 30.1146C71.7427 30.258 71.8629 30.4617 71.902 30.6876C71.958 30.9236 71.969 31.1816 71.935 31.4626C71.913 31.7326 71.868 31.9966 71.8 32.2546L71.53 33.3116L71.557 33.2386L71.598 33.1316C71.913 32.3336 72.216 31.6986 72.508 31.2266C72.812 30.7436 73.132 30.4006 73.469 30.1986C73.7992 29.9979 74.1786 29.8926 74.565 29.8946C74.969 29.8946 75.278 30.0126 75.492 30.2486C75.716 30.4846 75.829 30.7766 75.829 31.1256C75.829 31.4056 75.761 31.6706 75.626 31.9176C75.4952 32.1493 75.3103 32.3459 75.087 32.4906C74.8642 32.6279 74.6066 32.698 74.345 32.6926C74.065 32.6926 73.84 32.6196 73.671 32.4736C73.514 32.3276 73.435 32.1136 73.435 31.8336C73.435 31.5856 73.491 31.3616 73.604 31.1586C73.716 30.9566 73.862 30.7886 74.042 30.6536C74.222 30.5076 74.418 30.4066 74.632 30.3496C74.6083 30.3265 74.5795 30.3094 74.548 30.2996C74.5256 30.292 74.5025 30.2869 74.479 30.2846C74.4624 30.283 74.4457 30.2823 74.429 30.2826C74.183 30.2826 73.929 30.3726 73.671 30.5526C73.413 30.7206 73.143 30.9966 72.862 31.3786C72.582 31.7606 72.295 32.2656 72.002 32.8946C71.6725 33.6383 71.3802 34.3979 71.126 35.1706C70.999 35.5436 70.871 35.9466 70.743 36.3776L70.115 38.8276Z" fill="#2F2352"/>
<path id="Vector_16" fill-rule="evenodd" clip-rule="evenodd" d="M66.962 27.5185C66.4 27.1135 65.501 26.9115 64.265 26.9115C63.883 26.9115 63.501 26.9175 63.118 26.9285C62.748 26.9395 62.321 26.9455 61.838 26.9455H60.995C60.691 26.9335 60.405 26.9285 60.135 26.9285C59.9103 26.9186 59.6856 26.9073 59.461 26.8945L59.377 27.2315C59.815 27.2315 60.113 27.2875 60.27 27.4005C60.439 27.5005 60.517 27.6585 60.506 27.8725C60.4833 28.1455 60.4382 28.416 60.371 28.6815L58.146 37.0415C58.046 37.4455 57.933 37.7495 57.809 37.9515C57.697 38.1447 57.5169 38.2892 57.304 38.3565C57.09 38.4235 56.792 38.4685 56.41 38.4905L56.343 38.8275C56.533 38.8175 56.764 38.8115 57.033 38.8115C57.303 38.7995 57.59 38.7945 57.893 38.7945C58.7413 38.7687 59.5902 38.7744 60.438 38.8115C60.899 38.8215 61.321 38.8285 61.703 38.8285C62.433 38.8285 63.124 38.7545 63.776 38.6085C64.377 38.4722 64.9518 38.2392 65.478 37.9185C65.9488 37.6381 66.3472 37.251 66.641 36.7885C66.933 36.3385 67.079 35.8115 67.079 35.2045C67.079 34.5185 66.799 33.9285 66.237 33.4345C65.687 32.9395 64.815 32.6475 63.624 32.5575C64.3671 32.4508 65.0891 32.2292 65.764 31.9005C66.394 31.5745 66.888 31.1755 67.248 30.7035C67.6104 30.2554 67.8068 29.6958 67.804 29.1195C67.804 28.4455 67.525 27.9115 66.962 27.5185ZM61.582 32.7775L60.455 37.0415C60.388 37.3215 60.343 37.5695 60.321 37.7825C60.309 37.9965 60.365 38.1595 60.489 38.2725C60.613 38.3845 60.843 38.4405 61.18 38.4405C61.978 38.4405 62.63 38.2885 63.135 37.9855C63.6298 37.6946 64.024 37.2595 64.265 36.7385C64.512 36.1985 64.635 35.5915 64.635 34.9185C64.635 34.5015 64.562 34.1365 64.416 33.8225C64.2875 33.5035 64.0563 33.2365 63.759 33.0635C63.456 32.8725 63.051 32.7775 62.545 32.7775H61.582ZM61.658 32.4905H62.428C63.068 32.4905 63.613 32.3275 64.062 32.0015C64.523 31.6645 64.872 31.2265 65.108 30.6875C65.3538 30.1535 65.48 29.5724 65.478 28.9845C65.478 28.4225 65.366 27.9905 65.141 27.6865C64.928 27.3835 64.551 27.2315 64.011 27.2315C63.619 27.2315 63.338 27.3105 63.169 27.4675C63.001 27.6135 62.855 27.9335 62.731 28.4275L61.658 32.4905Z" fill="#2F2352"/>
</g>
<defs>
<clipPath id="clip0_218_44826">
<rect width="174" height="39" fill="white" transform="translate(0 0.5)"/>
</clipPath>
</defs>
</svg>
