<svg width="60" height="60" viewBox="0 0 60 60" fill="none" xmlns="http://www.w3.org/2000/svg">
<g id="fi_4433582" clip-path="url(#clip0_209_36723)">
<g id="Group">
<g id="Group_2">
<path id="Vector" d="M0 5.36719H60V45.0393H0V5.36719Z" fill="#836DA6"/>
<path id="Vector_2" d="M56.3783 8.98926V41.4179H3.62177V8.98926H56.3783Z" fill="#F1F0F7"/>
<path id="Vector_3" d="M51.5493 8.98926H56.3783V41.4179H51.5493V8.98926Z" fill="#E9E4F5"/>
<g id="Group_3">
<path id="Vector_4" d="M18.885 54.633L18.4286 50.0957L13.8914 49.6393L25.0062 38.5244L30 43.518L18.885 54.633Z" fill="#F683AE"/>
<path id="Vector_5" d="M41.115 54.633L41.5713 50.0957L46.1086 49.6393L34.9937 38.5244L30 43.518L41.115 54.633Z" fill="#F683AE"/>
</g>
<g id="Group_4">
<path id="Vector_6" d="M30.0001 47.2286C34.6204 47.2286 38.3658 43.4831 38.3658 38.8629C38.3658 34.2426 34.6204 30.4971 30.0001 30.4971C25.3798 30.4971 21.6343 34.2426 21.6343 38.8629C21.6343 43.4831 25.3798 47.2286 30.0001 47.2286Z" fill="#FFED75"/>
<path id="Vector_7" d="M30.0001 43.29C32.4452 43.29 34.4273 41.3079 34.4273 38.8628C34.4273 36.4177 32.4452 34.4355 30.0001 34.4355C27.555 34.4355 25.5729 36.4177 25.5729 38.8628C25.5729 41.3079 27.555 43.29 30.0001 43.29Z" fill="#FFC72E"/>
<path id="Vector_8" d="M30.0001 34.4355C29.194 34.4355 28.4384 34.6532 27.7867 35.031C29.2367 35.872 30.1687 37.5112 29.9746 39.3435C29.8233 40.7712 28.9788 42.0035 27.7881 42.6954C28.4395 43.0729 29.1948 43.2901 30.0002 43.2901C32.4413 43.2901 34.4274 41.304 34.4274 38.8629C34.4273 36.4215 32.4412 34.4355 30.0001 34.4355Z" fill="#FFB108"/>
</g>
<path id="Vector_9" d="M17.2051 14.5566H42.795V20.4318H17.2051V14.5566Z" fill="#FFC72E"/>
<g id="Group_5">
<path id="Vector_10" d="M9.21032 26.3274H50.7897C51.2898 26.3274 51.6951 25.922 51.6951 25.422C51.6951 24.922 51.2898 24.5166 50.7897 24.5166H9.21032C8.71028 24.5166 8.30493 24.922 8.30493 25.422C8.30493 25.922 8.71017 26.3274 9.21032 26.3274Z" fill="#C5B8D9"/>
<path id="Vector_11" d="M50.7896 29.5068H41.1317C40.6317 29.5068 40.2263 29.9122 40.2263 30.4122C40.2263 30.9124 40.6317 31.3176 41.1317 31.3176H50.7896C51.2896 31.3176 51.695 30.9123 51.695 30.4122C51.6951 29.9121 51.2898 29.5068 50.7896 29.5068Z" fill="#C5B8D9"/>
<path id="Vector_12" d="M50.7896 34.4961H43.9183C43.4183 34.4961 43.0129 34.9014 43.0129 35.4015C43.0129 35.9015 43.4183 36.3069 43.9183 36.3069H50.7897C51.2898 36.3069 51.6951 35.9015 51.6951 35.4015C51.6951 34.9014 51.2898 34.4961 50.7896 34.4961Z" fill="#C5B8D9"/>
<path id="Vector_13" d="M18.8682 29.5068H9.21032C8.71028 29.5068 8.30493 29.9122 8.30493 30.4122C8.30493 30.9124 8.71028 31.3176 9.21032 31.3176H18.8682C19.3683 31.3176 19.7736 30.9123 19.7736 30.4122C19.7736 29.9121 19.3683 29.5068 18.8682 29.5068Z" fill="#C5B8D9"/>
<path id="Vector_14" d="M16.0816 34.4961H9.21032C8.71028 34.4961 8.30493 34.9014 8.30493 35.4015C8.30493 35.9015 8.71028 36.3069 9.21032 36.3069H16.0817C16.5818 36.3069 16.9871 35.9015 16.9871 35.4015C16.9871 34.9014 16.5816 34.4961 16.0816 34.4961Z" fill="#C5B8D9"/>
</g>
</g>
<g id="Group_6">
<g id="Group_7">
<path id="Vector_15" d="M12.4498 18.3998C13.615 18.3998 13.617 16.5889 12.4498 16.5889C11.2846 16.5889 11.2827 18.3998 12.4498 18.3998Z" fill="#C5B8D9"/>
</g>
<g id="Group_8">
<path id="Vector_16" d="M47.5503 18.3998C48.7155 18.3998 48.7174 16.5889 47.5503 16.5889C46.3851 16.5889 46.3832 18.3998 47.5503 18.3998Z" fill="#C5B8D9"/>
</g>
</g>
</g>
<g id="Rectangle 587" style="mix-blend-mode:color">
<rect width="60" height="60" fill="#E74238"/>
</g>
</g>
<defs>
<clipPath id="clip0_209_36723">
<rect width="60" height="60" fill="white"/>
</clipPath>
</defs>
</svg>
