<svg width="60" height="60" viewBox="0 0 60 60" fill="none" xmlns="http://www.w3.org/2000/svg">
<g clip-path="url(#clip0_209_36791)">
<path d="M30 3.10352C19.6497 3.10352 17.2971 13.498 17.2012 26.4557C17.1972 26.9948 17.514 27.4804 17.9996 27.7073C19.8286 28.5619 23.0786 29.2225 25.6034 29.6151H34.3965C36.9212 29.2225 40.1714 28.5618 42.0003 27.7073C42.4857 27.4805 42.8027 26.9949 42.7987 26.4557C42.7029 13.4979 40.3502 3.10352 30 3.10352Z" fill="#694B4B"/>
<path d="M17.2012 26.4557C17.1972 26.9948 17.514 27.4804 17.9996 27.7073C19.8286 28.5619 23.0786 29.2225 25.6034 29.6151H30V14.4829C30 14.4829 24.8585 14.7338 25.8621 14.4829C30 13.4484 38.2759 8.27594 33.4628 3.56172C32.4219 3.26242 31.2719 3.10352 30.0001 3.10352C19.6497 3.10363 17.2971 13.498 17.2012 26.4557Z" fill="#5A4146"/>
<path d="M45.5413 53.7935V37.8593C45.5413 36.1889 44.5368 34.6821 42.995 34.0396L35.6962 30.9985C35.0148 30.7147 34.571 30.0488 34.571 29.3108V27.1016H25.429V29.3108C25.429 30.0488 24.9852 30.7146 24.3039 30.9985L17.0051 34.0396C15.463 34.6822 14.4587 36.1888 14.4587 37.8593V53.7935H45.5413Z" fill="#D29B6E"/>
<path d="M42.995 34.0392L37.864 31.9014C35.9751 34.181 34.1023 35.901 32.4718 37.1617H27.5283C25.8979 35.9009 24.025 34.1809 22.136 31.9014L17.0051 34.0392C15.463 34.6816 14.4587 36.1883 14.4587 37.8588V53.793H45.5414V37.8588C45.5413 36.1883 44.5368 34.6816 42.995 34.0392Z" fill="#FFDC64"/>
<path d="M15.0525 35.7422C14.6772 36.3705 14.4587 37.095 14.4587 37.8588V53.793H20.6897V41.3793L15.0525 35.7422Z" fill="#FFC850"/>
<path d="M44.9475 35.7422C45.3228 36.3705 45.5413 37.095 45.5413 37.8588V53.793H39.3103V41.3793L44.9475 35.7422Z" fill="#FFC850"/>
<path d="M39.0738 15.7375L38.4028 23.1176C38.2933 24.3226 37.5948 25.3955 36.537 25.9831L31.7759 28.6281C30.6714 29.2417 29.3285 29.2417 28.2242 28.6281L23.4631 25.9831C22.4053 25.3955 21.7068 24.3226 21.5972 23.1176L20.9494 15.991C20.8991 15.4383 21.2923 14.9464 21.8435 14.882C24.2851 14.597 30.6981 13.7032 34.5794 11.8183C35.0703 11.5798 35.646 11.7721 35.9181 12.2451C36.3631 13.0184 37.1842 14.1 38.5312 14.7415C38.9038 14.9191 39.1112 15.3264 39.0738 15.7375Z" fill="#F0C087"/>
<path d="M58.9655 56.8968H1.03453C0.463242 56.8968 0 56.4336 0 55.8623V53.7933C0 53.222 0.463242 52.7588 1.03453 52.7588H58.9656C59.5369 52.7588 60.0001 53.222 60.0001 53.7933V55.8623C60 56.4337 59.5368 56.8968 58.9655 56.8968Z" fill="#F5DCB4"/>
<path d="M20.9493 15.9911L21.5971 23.1177C21.7067 24.3228 22.4051 25.3955 23.4629 25.9832L28.224 28.6282C28.6599 28.8703 29.1353 28.9889 29.616 29.0398L28.2762 25.6906C28.0473 25.1182 27.9049 24.5152 27.8537 23.9009L27.2842 17.0676C27.2406 16.544 27.5952 16.0758 28.1095 15.9691C30.3135 15.512 32.6713 14.8906 34.6331 14.0634C35.2801 14.9578 36.249 15.9463 37.6415 16.6095C37.9206 16.7424 38.0531 16.803 38.9699 16.8782L39.0736 15.7373C39.1111 15.3243 38.9001 14.9176 38.5259 14.7389C37.1819 14.0972 36.3622 13.0173 35.918 12.2451C35.6459 11.7721 35.07 11.5798 34.5791 11.8183C30.6979 13.7034 24.2851 14.597 21.8433 14.882C21.2923 14.9465 20.899 15.4383 20.9493 15.9911Z" fill="#E6AF78"/>
<path d="M20.5428 33.2214C22.3092 35.353 24.2337 37.2294 26.2625 38.7984L26.8215 39.2307H27.5282H32.4716H33.1782L33.7372 38.7984C35.7662 37.2295 37.6907 35.3531 39.4569 33.2214L39.8611 32.7336L37.8637 31.9014C35.9748 34.181 34.102 35.901 32.4715 37.1617H27.528C25.8976 35.9009 24.0247 34.1809 22.1358 31.9014L20.1384 32.7336L20.5428 33.2214Z" fill="#FFC850"/>
<path d="M39.3103 52.7587H20.6897C19.547 52.7587 18.6207 51.8325 18.6207 50.6898V38.276C18.6207 37.1333 19.547 36.207 20.6897 36.207H39.3104C40.4531 36.207 41.3794 37.1333 41.3794 38.276V50.6898C41.3792 51.8325 40.453 52.7587 39.3103 52.7587Z" fill="#D5DCED"/>
<path d="M30 46.552C31.1426 46.552 32.0689 45.6257 32.0689 44.483C32.0689 43.3404 31.1426 42.4141 30 42.4141C28.8573 42.4141 27.931 43.3404 27.931 44.483C27.931 45.6257 28.8573 46.552 30 46.552Z" fill="white"/>
</g>
<defs>
<clipPath id="clip0_209_36791">
<rect width="60" height="60" fill="white"/>
</clipPath>
</defs>
</svg>
