<svg width="220" height="67" viewBox="0 0 220 67" fill="none" xmlns="http://www.w3.org/2000/svg">
<g clip-path="url(#clip0_209_36850)">
<path d="M98.0534 0H0V66.7586H98.0534V0Z" fill="white"/>
<path d="M96.1598 1.85938H1.89331V65.0805H96.1598V1.85938Z" fill="#034EA2"/>
<path d="M47.0206 15.6015L49.0042 14.1502L50.9878 15.6015L50.2214 13.2431L52.2501 11.7919H49.7706L49.0042 9.38818L48.2378 11.7919H45.7583L47.787 13.2431L47.0206 15.6015Z" fill="#FFF100"/>
<path d="M36.7418 18.413L38.7254 16.9163L40.709 18.413L39.9426 16.0547L41.9713 14.558H39.4918L38.7254 12.1997L37.959 14.558H35.4795L37.4631 16.0547L36.7418 18.413Z" fill="#FFF100"/>
<path d="M31.1967 19.7734L30.4304 22.1771H27.9058L29.9345 23.6284L29.1681 25.9867L31.1967 24.5354L33.1804 25.9867L32.414 23.6284L34.4426 22.1771H31.9631L31.1967 19.7734Z" fill="#FFF100"/>
<path d="M28.4014 34.8758L30.385 36.327L29.6637 33.9687L31.6473 32.5174H29.1678L28.4014 30.1138L27.635 32.5174H25.1555L27.1842 33.9687L26.4178 36.327L28.4014 34.8758Z" fill="#FFF100"/>
<path d="M31.9631 42.9032L31.1967 40.4995L30.4304 42.9032H27.9058L29.9345 44.3545L29.1681 46.7128L31.1967 45.2615L33.1804 46.7128L32.414 44.3545L34.4426 42.9032H31.9631Z" fill="#FFF100"/>
<path d="M39.4918 50.4769L38.7254 48.0732L37.959 50.4769H35.4795L37.5082 51.9282L36.7418 54.2865L38.7254 52.8352L40.709 54.2865L39.9426 51.9282L41.9713 50.4769H39.4918Z" fill="#FFF100"/>
<path d="M49.7706 53.2435L49.0042 50.8398L48.2378 53.2435H45.7583L47.787 54.6948L47.0206 57.0531L49.0042 55.6018L50.9878 57.0531L50.2214 54.6948L52.2501 53.2435H49.7706Z" fill="#FFF100"/>
<path d="M60.0492 50.4769L59.2828 48.0732L58.5164 50.4769H56.0369L58.0656 51.9282L57.2992 54.2865L59.2828 52.8352L61.2664 54.2865L60.5451 51.9282L62.5287 50.4769H60.0492Z" fill="#FFF100"/>
<path d="M67.6229 42.9032L66.8565 40.4995L66.0901 42.9032H63.6106L65.5942 44.3545L64.8729 46.7128L66.8565 45.2615L68.8401 46.7128L68.0737 44.3545L70.1024 42.9032H67.6229Z" fill="#FFF100"/>
<path d="M72.8075 32.4721H70.328L69.5616 30.1138L68.7952 32.4721H66.3157L68.3444 33.9234L67.578 36.327L69.5616 34.8304L71.5452 36.327L70.8239 33.9234L72.8075 32.4721Z" fill="#FFF100"/>
<path d="M64.8729 25.9418L66.8565 24.4905L68.8401 25.9418L68.0737 23.5835L70.1024 22.1322H67.6229L66.8565 19.7285L66.0901 22.1322H63.6106L65.5942 23.5835L64.8729 25.9418Z" fill="#FFF100"/>
<path d="M59.3279 12.1997L58.5615 14.558H56.082L58.1107 16.0547L57.3443 18.413L59.3279 16.9163L61.3115 18.413L60.5451 16.0547L62.5738 14.558H60.0943L59.3279 12.1997Z" fill="#FFF100"/>
<path d="M110.09 8.97949H113.291C113.922 8.97949 114.418 9.02484 114.689 9.0702C115.004 9.11555 115.275 9.25161 115.545 9.38766C115.771 9.56907 115.996 9.79583 116.176 10.0679C116.357 10.3401 116.402 10.6575 116.402 11.0203C116.402 11.3832 116.312 11.746 116.086 12.0635C115.906 12.3809 115.59 12.6077 115.275 12.7891C115.771 12.9251 116.131 13.1973 116.402 13.5147C116.672 13.8775 116.808 14.2857 116.808 14.7392C116.808 15.1021 116.717 15.4649 116.537 15.8277C116.357 16.1905 116.131 16.4626 115.861 16.644C115.545 16.8708 115.185 16.9615 114.779 17.0069C114.508 17.0522 113.877 17.0522 112.84 17.0522H110.09V8.97949ZM111.713 10.2947V12.1542H112.795C113.426 12.1542 113.832 12.1542 113.967 12.1088C114.238 12.0635 114.463 11.9727 114.599 11.8367C114.779 11.6553 114.824 11.4739 114.824 11.2018C114.824 10.9296 114.734 10.7482 114.599 10.6122C114.463 10.4761 114.238 10.3401 113.967 10.3401C113.787 10.3401 113.336 10.2947 112.57 10.2947H111.713ZM111.713 13.5147V15.6916H113.201C113.787 15.6916 114.148 15.6916 114.328 15.6463C114.553 15.6009 114.779 15.5102 114.914 15.3288C115.049 15.1474 115.14 14.9206 115.14 14.6485C115.14 14.4218 115.094 14.195 114.959 14.0136C114.824 13.8322 114.689 13.7415 114.463 13.6508C114.238 13.5601 113.742 13.5147 113.021 13.5147H111.713Z" fill="white"/>
<path d="M121.992 17.0525V16.1908C121.766 16.5083 121.496 16.7351 121.135 16.9165C120.775 17.0979 120.414 17.1886 120.053 17.1886C119.648 17.1886 119.332 17.0979 119.016 16.9165C118.701 16.7351 118.475 16.5083 118.34 16.1908C118.205 15.8734 118.115 15.4652 118.115 14.8756V11.1567H119.648V13.8325C119.648 14.6489 119.693 15.1477 119.738 15.3292C119.783 15.5106 119.918 15.6466 120.053 15.7827C120.189 15.8734 120.414 15.9641 120.639 15.9641C120.91 15.9641 121.135 15.8734 121.361 15.7373C121.586 15.6013 121.721 15.4199 121.766 15.1931C121.857 14.9663 121.902 14.4675 121.902 13.6058V11.1567H123.434V17.0072H121.992V17.0525Z" fill="white"/>
<path d="M131.189 11.202H132.631V12.0637C132.812 11.7916 133.082 11.5194 133.398 11.338C133.713 11.1566 134.074 11.0659 134.435 11.0659C135.111 11.0659 135.697 11.338 136.148 11.8823C136.599 12.4265 136.869 13.1521 136.869 14.1045C136.869 15.1023 136.644 15.8279 136.148 16.3721C135.652 16.9164 135.111 17.1885 134.435 17.1885C134.119 17.1885 133.803 17.1431 133.578 17.0071C133.308 16.871 133.037 16.6443 132.767 16.3268V19.2747H131.189V11.202ZM132.722 14.0138C132.722 14.6488 132.857 15.1476 133.127 15.4651C133.398 15.7826 133.713 15.9186 134.074 15.9186C134.435 15.9186 134.75 15.7826 134.976 15.4651C135.201 15.193 135.336 14.6941 135.336 14.0592C135.336 13.4242 135.201 12.9707 134.976 12.6986C134.75 12.3811 134.435 12.2451 134.074 12.2451C133.713 12.2451 133.398 12.3811 133.127 12.6986C132.857 13.0161 132.722 13.4696 132.722 14.0138Z" fill="white"/>
<path d="M139.574 17.0524H138.041V11.202H139.484V12.0183C139.709 11.6101 139.935 11.3834 140.16 11.2473C140.34 11.1113 140.566 11.0659 140.836 11.0659C141.197 11.0659 141.513 11.1566 141.828 11.338L141.332 12.6986C141.062 12.5172 140.836 12.4265 140.611 12.4265C140.386 12.4265 140.205 12.4718 140.07 12.6079C139.935 12.744 139.799 12.9254 139.709 13.2428C139.619 13.5603 139.574 14.1952 139.574 15.193V17.0524Z" fill="white"/>
<path d="M142.099 14.0592C142.099 13.5604 142.234 13.0615 142.459 12.5626C142.73 12.0637 143.09 11.7009 143.541 11.4741C143.992 11.202 144.533 11.1113 145.074 11.1113C145.976 11.1113 146.652 11.3834 147.238 11.973C147.779 12.5626 148.095 13.2882 148.095 14.1499C148.095 15.057 147.824 15.7826 147.238 16.3722C146.652 16.9618 145.976 17.2339 145.074 17.2339C144.533 17.2339 144.037 17.0978 143.541 16.8711C143.045 16.6443 142.685 16.2815 142.459 15.7826C142.234 15.2837 142.099 14.6942 142.099 14.0592ZM143.677 14.1046C143.677 14.6942 143.812 15.1477 144.082 15.4198C144.353 15.6919 144.713 15.8733 145.074 15.8733C145.48 15.8733 145.795 15.7373 146.066 15.4198C146.336 15.1023 146.472 14.6488 146.472 14.0592C146.472 13.4696 146.336 13.0615 146.066 12.744C145.795 12.4265 145.435 12.2905 145.074 12.2905C144.668 12.2905 144.353 12.4265 144.082 12.744C143.812 13.0615 143.677 13.5604 143.677 14.1046Z" fill="white"/>
<path d="M150.799 11.2022V16.8712C150.799 17.5969 150.754 18.1411 150.664 18.4586C150.574 18.776 150.394 19.0028 150.123 19.1842C149.853 19.3656 149.492 19.4563 149.086 19.4563C148.951 19.4563 148.771 19.4563 148.59 19.411C148.41 19.3656 148.23 19.3203 148.004 19.2749L148.275 17.9597C148.365 17.9597 148.41 18.005 148.5 18.005C148.545 18.005 148.635 18.005 148.68 18.005C148.816 18.005 148.951 17.9597 149.086 17.9143C149.176 17.8236 149.266 17.7783 149.266 17.6876C149.312 17.5969 149.312 17.3247 149.312 16.8259V11.2022H150.799ZM149.266 10.3858V8.93457H150.799V10.3858H149.266Z" fill="white"/>
<path d="M155.803 15.193L157.336 15.4197C157.156 15.964 156.84 16.4175 156.389 16.6896C155.984 17.0071 155.443 17.1431 154.812 17.1431C153.82 17.1431 153.053 16.8257 152.557 16.1454C152.197 15.6011 151.971 14.9209 151.971 14.1499C151.971 13.1975 152.242 12.4265 152.738 11.8823C153.234 11.338 153.865 11.0659 154.631 11.0659C155.488 11.0659 156.164 11.338 156.66 11.9276C157.156 12.5172 157.381 13.3789 157.381 14.558H153.549C153.549 15.0116 153.685 15.3744 153.91 15.6465C154.135 15.9186 154.451 16.0093 154.812 16.0093C155.037 16.0093 155.262 15.964 155.398 15.8279C155.578 15.6919 155.713 15.4651 155.803 15.193ZM155.894 13.6056C155.894 13.1521 155.758 12.8347 155.533 12.5625C155.308 12.3358 155.037 12.1997 154.721 12.1997C154.406 12.1997 154.09 12.3358 153.91 12.5625C153.685 12.7893 153.594 13.1521 153.594 13.5603H155.894V13.6056Z" fill="white"/>
<path d="M117.303 30.5678H115.545L114.824 28.7537H111.623L110.947 30.5678H109.234L112.344 22.4951H114.057L117.303 30.5678ZM114.328 27.3932L113.201 24.3999L112.119 27.3932H114.328Z" fill="white"/>
<path d="M119.783 30.5677L117.439 24.7173H119.062L120.144 27.7105L120.459 28.7083C120.549 28.4362 120.594 28.3001 120.64 28.2094C120.685 28.028 120.73 27.8919 120.82 27.7105L121.947 24.7173H123.525L121.226 30.5677H119.783Z" fill="white"/>
<path d="M125.869 30.5676H124.336V24.7171H125.779V25.5335C126.004 25.1253 126.23 24.8985 126.455 24.7625C126.635 24.6264 126.861 24.5811 127.131 24.5811C127.492 24.5811 127.808 24.6718 128.123 24.8532L127.627 26.2137C127.357 26.0323 127.131 25.9416 126.906 25.9416C126.68 25.9416 126.5 25.987 126.365 26.123C126.23 26.2591 126.094 26.4405 126.004 26.758C125.914 27.0754 125.869 27.7104 125.869 28.7081V30.5676Z" fill="white"/>
<path d="M132.586 30.5672V29.7055C132.361 30.023 132.09 30.2497 131.73 30.4311C131.369 30.6125 131.008 30.7032 130.648 30.7032C130.242 30.7032 129.926 30.6125 129.611 30.4311C129.295 30.2497 129.07 30.023 128.935 29.7055C128.799 29.388 128.709 28.9799 128.709 28.3903V24.6714H130.242V27.3472C130.242 28.1635 130.287 28.6624 130.332 28.8438C130.377 29.0252 130.513 29.1613 130.648 29.2973C130.783 29.388 131.008 29.4787 131.234 29.4787C131.504 29.4787 131.73 29.388 131.955 29.252C132.181 29.1159 132.316 28.9345 132.361 28.7077C132.451 28.481 132.496 27.9821 132.496 27.1204V24.6714H134.029V30.5218H132.586V30.5672Z" fill="white"/>
<path d="M135.562 24.7171H137.004V25.5788C137.184 25.3067 137.455 25.0346 137.771 24.8532C138.086 24.6718 138.447 24.5811 138.807 24.5811C139.484 24.5811 140.07 24.8532 140.521 25.3974C140.971 25.9416 141.242 26.6673 141.242 27.6197C141.242 28.6174 141.016 29.343 140.521 29.8873C140.025 30.4315 139.484 30.7036 138.807 30.7036C138.492 30.7036 138.176 30.6583 137.951 30.5222C137.68 30.3862 137.41 30.1594 137.139 29.8419V32.7898H135.607V24.7171H135.562ZM137.094 27.5743C137.094 28.2092 137.23 28.7081 137.5 29.0256C137.771 29.343 138.086 29.4791 138.447 29.4791C138.807 29.4791 139.123 29.343 139.348 29.0256C139.574 28.7535 139.709 28.2546 139.709 27.6197C139.709 26.9847 139.574 26.5312 139.348 26.2591C139.123 25.9416 138.807 25.8056 138.447 25.8056C138.086 25.8056 137.771 25.9416 137.5 26.2591C137.23 26.5312 137.094 26.9847 137.094 27.5743Z" fill="white"/>
<path d="M143.631 26.5312L142.234 26.2591C142.369 25.7149 142.64 25.2613 143.045 24.9892C143.451 24.7171 143.992 24.5811 144.758 24.5811C145.435 24.5811 145.976 24.6718 146.291 24.8078C146.607 24.9892 146.877 25.1706 147.012 25.4427C147.148 25.7149 147.238 26.1684 147.238 26.8487V28.6628C147.238 29.1616 147.283 29.5698 147.328 29.7966C147.373 30.0233 147.463 30.2954 147.599 30.5676H146.066C146.021 30.4769 145.976 30.2954 145.931 30.114C145.885 30.0233 145.885 29.978 145.885 29.9326C145.615 30.2047 145.344 30.3862 145.029 30.5222C144.713 30.6583 144.398 30.7036 144.082 30.7036C143.496 30.7036 143 30.5222 142.685 30.2047C142.324 29.8873 142.189 29.4791 142.189 28.9802C142.189 28.6628 142.279 28.3453 142.414 28.1185C142.549 27.8464 142.775 27.665 143.09 27.529C143.361 27.3929 143.767 27.2568 144.308 27.1661C145.029 27.0301 145.525 26.894 145.795 26.8033V26.6673C145.795 26.3498 145.705 26.1684 145.57 26.0323C145.435 25.8963 145.164 25.8509 144.758 25.8509C144.488 25.8509 144.263 25.8963 144.127 26.0323C143.812 26.0323 143.722 26.2591 143.631 26.5312ZM145.66 27.7557C145.48 27.8011 145.164 27.8918 144.713 27.9825C144.262 28.0732 143.992 28.1639 143.857 28.2546C143.676 28.3906 143.541 28.5721 143.541 28.7988C143.541 29.0256 143.631 29.207 143.767 29.343C143.947 29.4791 144.127 29.5698 144.398 29.5698C144.668 29.5698 144.939 29.4791 145.209 29.2977C145.39 29.1616 145.525 28.9802 145.57 28.7988C145.615 28.6628 145.615 28.436 145.615 28.0278V27.7557H145.66Z" fill="white"/>
<path d="M151.836 22.4951H155.037C155.668 22.4951 156.164 22.5405 156.435 22.5858C156.75 22.6312 157.021 22.7672 157.291 22.9033C157.562 23.0393 157.742 23.3115 157.922 23.5836C158.103 23.8557 158.148 24.1732 158.148 24.536C158.148 24.8988 158.058 25.2616 157.832 25.5791C157.652 25.8965 157.336 26.1233 157.021 26.3047C157.517 26.4408 157.877 26.7129 158.148 27.0303C158.418 27.3932 158.553 27.8013 158.553 28.2549C158.553 28.6177 158.463 28.9805 158.283 29.3433C158.103 29.7061 157.877 29.9783 157.607 30.1597C157.291 30.3864 156.93 30.4771 156.525 30.5225C156.254 30.5678 155.623 30.5678 154.586 30.5678H151.836V22.4951ZM153.459 23.8557V25.7151H154.541C155.172 25.7151 155.578 25.7151 155.713 25.6698C155.984 25.6244 156.209 25.5337 156.344 25.3977C156.525 25.2163 156.57 25.0348 156.57 24.7627C156.57 24.4906 156.48 24.3092 156.344 24.1732C156.209 24.0371 155.984 23.901 155.713 23.901C155.533 23.901 155.082 23.8557 154.316 23.8557H153.459ZM153.459 27.0757V29.2526H154.947C155.533 29.2526 155.894 29.2526 156.074 29.2073C156.299 29.1619 156.525 29.0712 156.66 28.8898C156.795 28.7084 156.885 28.4816 156.885 28.2095C156.885 27.9827 156.84 27.756 156.705 27.5746C156.57 27.3932 156.435 27.3025 156.209 27.2118C155.984 27.1211 155.488 27.0757 154.767 27.0757H153.459Z" fill="white"/>
<path d="M159.906 23.9464V22.4951H161.439V23.9464H159.906ZM159.906 30.5678V24.7174H161.439V30.5678H159.906Z" fill="white"/>
<path d="M164.504 30.5676H162.971V24.7171H164.414V25.5335C164.639 25.1253 164.865 24.8985 165.09 24.7625C165.271 24.6264 165.496 24.5811 165.767 24.5811C166.127 24.5811 166.443 24.6718 166.758 24.8532L166.262 26.2137C165.992 26.0323 165.767 25.9416 165.541 25.9416C165.316 25.9416 165.135 25.987 165 26.123C164.865 26.2591 164.73 26.4405 164.639 26.758C164.549 27.0754 164.504 27.7104 164.504 28.7081V30.5676Z" fill="white"/>
<path d="M167.389 30.5678V22.4951H168.922V30.5678H167.389Z" fill="white"/>
<path d="M170.5 23.9464V22.4951H172.033V23.9464H170.5ZM170.5 30.5678V24.7174H172.033V30.5678H170.5Z" fill="white"/>
<path d="M173.476 30.9758L175.234 31.2026C175.279 31.4294 175.324 31.5654 175.414 31.6108C175.549 31.7015 175.775 31.7922 176.09 31.7922C176.496 31.7922 176.812 31.7468 176.992 31.6108C177.127 31.5201 177.217 31.384 177.308 31.2026C177.353 31.0665 177.398 30.8398 177.398 30.477V29.6153C176.947 30.2502 176.361 30.5677 175.64 30.5677C174.873 30.5677 174.242 30.2502 173.791 29.5699C173.431 29.0257 173.25 28.3907 173.25 27.6198C173.25 26.622 173.476 25.8964 173.972 25.3521C174.422 24.8533 175.008 24.5812 175.73 24.5812C176.451 24.5812 177.037 24.8986 177.488 25.5335V24.7172H178.931V29.9781C178.931 30.6584 178.885 31.2026 178.75 31.5201C178.615 31.8829 178.48 32.1096 178.254 32.3364C178.029 32.5178 177.758 32.6992 177.443 32.7899C177.082 32.8806 176.676 32.9713 176.136 32.9713C175.144 32.9713 174.467 32.7899 174.017 32.4725C173.611 32.155 173.385 31.7015 173.385 31.2026C173.476 31.1119 173.476 31.0212 173.476 30.9758ZM177.037 22.3589H177.804C177.758 22.8578 177.578 23.2659 177.263 23.538C176.947 23.8102 176.541 23.9462 176.09 23.9462C175.595 23.9462 175.189 23.8102 174.918 23.538C174.603 23.2659 174.422 22.8578 174.377 22.3589H175.144C175.189 22.631 175.279 22.8124 175.414 22.9485C175.549 23.0845 175.82 23.1299 176.09 23.1299C176.406 23.1299 176.631 23.0845 176.767 22.9485C176.947 22.8124 177.037 22.631 177.037 22.3589ZM174.828 27.5291C174.828 28.164 174.963 28.6175 175.189 28.8896C175.414 29.1617 175.73 29.3431 176.09 29.3431C176.451 29.3431 176.767 29.2071 177.037 28.8896C177.308 28.5722 177.443 28.164 177.443 27.5744C177.443 26.9848 177.308 26.5313 177.082 26.2138C176.812 25.9417 176.541 25.7603 176.136 25.7603C175.775 25.7603 175.459 25.8964 175.234 26.2138C174.963 26.4859 174.828 26.9395 174.828 27.5291Z" fill="white"/>
<path d="M180.463 23.9464V22.4951H181.996V23.9464H180.463ZM180.463 30.5678V24.7174H181.996V30.5678H180.463Z" fill="white"/>
<path d="M112.75 38.2776V39.5021H111.713V41.8604C111.713 42.3593 111.713 42.6314 111.758 42.6768C111.803 42.7221 111.803 42.8128 111.894 42.8582C111.984 42.9035 112.029 42.9489 112.164 42.9489C112.299 42.9489 112.525 42.9035 112.795 42.8128L112.931 43.992C112.57 44.1281 112.164 44.2188 111.713 44.2188C111.443 44.2188 111.172 44.1734 110.947 44.0827C110.722 43.992 110.541 43.8559 110.451 43.7199C110.361 43.5838 110.271 43.3571 110.226 43.1303C110.181 42.9489 110.181 42.5861 110.181 42.0419V39.5021H109.459V38.2776H110.181V37.0985L111.713 36.1914V38.2776H112.75Z" fill="white"/>
<path d="M114.959 40.0459L113.561 39.7737C113.697 39.2295 113.967 38.776 114.373 38.5039C114.734 38.2318 115.32 38.0957 116.086 38.0957C116.762 38.0957 117.303 38.1864 117.619 38.3225C117.934 38.5039 118.205 38.6853 118.34 38.9574C118.475 39.2295 118.566 39.683 118.566 40.3633V42.1774C118.566 42.6763 118.611 43.0845 118.656 43.3112C118.701 43.538 118.791 43.8101 118.926 44.0822H117.393C117.348 43.9915 117.303 43.8101 117.258 43.6287C117.213 43.538 117.213 43.4926 117.213 43.4473C116.943 43.7194 116.672 43.9008 116.357 44.0369C116.041 44.1729 115.725 44.2183 115.41 44.2183C114.824 44.2183 114.328 44.0369 114.012 43.7194C113.652 43.4019 113.516 42.9938 113.516 42.4949C113.516 42.1774 113.607 41.8599 113.742 41.6332C113.877 41.3611 114.102 41.1797 114.418 41.0436C114.688 40.9075 115.094 40.7715 115.635 40.6808C116.357 40.5447 116.852 40.4087 117.123 40.318V40.1819C117.123 39.8644 117.033 39.683 116.897 39.547C116.762 39.4109 116.492 39.3656 116.086 39.3656C115.816 39.3656 115.59 39.4109 115.455 39.547C115.184 39.5923 115.049 39.7737 114.959 40.0459ZM117.033 41.3157C116.852 41.3611 116.537 41.4518 116.086 41.5425C115.68 41.6332 115.365 41.7239 115.229 41.8146C115.049 41.9506 114.914 42.1321 114.914 42.3588C114.914 42.5856 115.004 42.767 115.139 42.903C115.32 43.0391 115.5 43.1298 115.77 43.1298C116.041 43.1298 116.311 43.0391 116.582 42.8577C116.762 42.7216 116.898 42.5402 116.943 42.3588C116.988 42.2228 116.988 41.996 116.988 41.5878V41.3157H117.033Z" fill="white"/>
<path d="M121.496 44.1281H119.963V38.2777H121.406V39.094C121.631 38.6858 121.857 38.4591 122.082 38.323C122.262 38.187 122.488 38.1416 122.758 38.1416C123.119 38.1416 123.434 38.2323 123.75 38.4137L123.254 39.7743C122.984 39.5929 122.758 39.5022 122.533 39.5022C122.307 39.5022 122.127 39.5475 121.992 39.6836C121.857 39.8196 121.721 40.001 121.631 40.3185C121.541 40.636 121.496 41.2709 121.496 42.2687V44.1281Z" fill="white"/>
<path d="M125.553 40.0459L124.156 39.7737C124.291 39.2295 124.562 38.776 124.967 38.5039C125.328 38.2318 125.914 38.0957 126.681 38.0957C127.357 38.0957 127.898 38.1864 128.213 38.3225C128.529 38.5039 128.799 38.6853 128.935 38.9574C129.07 39.2295 129.16 39.683 129.16 40.3633V42.1774C129.16 42.6763 129.205 43.0845 129.25 43.3112C129.295 43.538 129.385 43.8101 129.521 44.0822H127.988C127.943 43.9915 127.898 43.8101 127.853 43.6287C127.808 43.538 127.808 43.4926 127.808 43.4473C127.537 43.7194 127.267 43.9008 126.951 44.0369C126.635 44.1729 126.32 44.2183 126.004 44.2183C125.418 44.2183 124.922 44.0369 124.607 43.7194C124.246 43.4019 124.111 42.9938 124.111 42.4949C124.111 42.1774 124.201 41.8599 124.336 41.6332C124.471 41.3611 124.697 41.1797 125.012 41.0436C125.283 40.9075 125.689 40.7715 126.23 40.6808C126.951 40.5447 127.447 40.4087 127.717 40.318V40.1819C127.717 39.8644 127.627 39.683 127.492 39.547C127.357 39.4109 127.086 39.3656 126.681 39.3656C126.41 39.3656 126.185 39.4109 126.049 39.547C125.779 39.5923 125.644 39.7737 125.553 40.0459ZM127.627 41.3157C127.447 41.3611 127.131 41.4518 126.681 41.5425C126.275 41.6332 125.959 41.7239 125.824 41.8146C125.644 41.9506 125.508 42.1321 125.508 42.3588C125.508 42.5856 125.599 42.767 125.734 42.903C125.914 43.0391 126.094 43.1298 126.365 43.1298C126.635 43.1298 126.906 43.0391 127.176 42.8577C127.357 42.7216 127.492 42.5402 127.537 42.3588C127.582 42.2228 127.582 41.996 127.582 41.5878V41.3157H127.627Z" fill="white"/>
<path d="M129.971 38.2773H130.828V37.8237C130.828 37.3249 130.873 36.9621 130.963 36.7353C131.053 36.5085 131.279 36.2818 131.549 36.1457C131.82 36.0096 132.18 35.9189 132.631 35.9189C133.082 35.9189 133.488 35.9643 133.939 36.1004L133.713 37.1888C133.488 37.1435 133.217 37.0981 132.992 37.0981C132.767 37.0981 132.631 37.1435 132.496 37.2342C132.406 37.3249 132.361 37.5516 132.361 37.8237V38.2319H133.488V39.4564H132.361V44.0824H130.828V39.5018H129.971V38.2773Z" fill="white"/>
<path d="M134.39 44.1278V38.2773H135.922V44.1278H134.39Z" fill="white"/>
<path d="M142.775 44.1281H141.242V41.1349C141.242 40.4999 141.197 40.0918 141.152 39.9103C141.107 39.7289 140.971 39.5929 140.836 39.4568C140.701 39.3661 140.521 39.3208 140.295 39.3208C140.025 39.3208 139.799 39.4115 139.574 39.5475C139.349 39.6836 139.213 39.9103 139.123 40.1371C139.033 40.3639 138.988 40.8174 138.988 41.4977V44.1281H137.455V38.2777H138.898V39.1394C139.394 38.4591 140.025 38.1416 140.791 38.1416C141.152 38.1416 141.422 38.187 141.738 38.323C142.008 38.4591 142.234 38.5951 142.369 38.7765C142.504 38.9579 142.594 39.1847 142.685 39.4115C142.73 39.6382 142.775 40.001 142.775 40.4546V44.1281Z" fill="white"/>
<path d="M149.672 44.1278H148.23V43.2661C148.004 43.5836 147.734 43.8557 147.373 43.9918C147.057 44.1732 146.742 44.2185 146.381 44.2185C145.705 44.2185 145.119 43.9464 144.668 43.4022C144.172 42.858 143.947 42.087 143.947 41.1346C143.947 40.1368 144.172 39.4112 144.623 38.867C145.074 38.3681 145.66 38.096 146.381 38.096C147.012 38.096 147.598 38.3681 148.049 38.9123V36.0098H149.582V44.1278H149.672ZM145.57 41.0439C145.57 41.6788 145.66 42.1323 145.84 42.4044C146.066 42.8126 146.426 42.994 146.877 42.994C147.238 42.994 147.553 42.858 147.779 42.5405C148.004 42.223 148.139 41.7695 148.139 41.1799C148.139 40.4996 148.004 40.0461 147.779 39.7287C147.553 39.4112 147.238 39.2751 146.832 39.2751C146.471 39.2751 146.156 39.4112 145.93 39.7287C145.705 40.0461 145.57 40.4996 145.57 41.0439Z" fill="white"/>
<path d="M152.332 40.0459L150.934 39.7737C151.07 39.2295 151.34 38.776 151.746 38.5039C152.107 38.2318 152.693 38.0957 153.459 38.0957C154.135 38.0957 154.676 38.1864 154.992 38.3225C155.307 38.5039 155.578 38.6853 155.713 38.9574C155.848 39.2295 155.939 39.683 155.939 40.3633V42.1774C155.939 42.6763 155.984 43.0845 156.029 43.3112C156.074 43.538 156.164 43.8101 156.299 44.0822H154.766C154.721 43.9915 154.676 43.8101 154.631 43.6287C154.586 43.538 154.586 43.4926 154.586 43.4473C154.316 43.7194 154.045 43.9008 153.73 44.0369C153.414 44.1729 153.098 44.2183 152.783 44.2183C152.197 44.2183 151.701 44.0369 151.385 43.7194C151.025 43.4019 150.889 42.9938 150.889 42.4949C150.889 42.1774 150.98 41.8599 151.115 41.6332C151.25 41.3611 151.475 41.1797 151.791 41.0436C152.062 40.9075 152.467 40.7715 153.008 40.6808C153.73 40.5447 154.225 40.4087 154.496 40.318V40.1819C154.496 39.8644 154.406 39.683 154.271 39.547C154.135 39.4109 153.865 39.3656 153.459 39.3656C153.189 39.3656 152.963 39.4109 152.828 39.547C152.557 39.5923 152.422 39.7737 152.332 40.0459ZM154.406 41.3157C154.225 41.3611 153.91 41.4518 153.459 41.5425C153.053 41.6332 152.738 41.7239 152.603 41.8146C152.422 41.9506 152.287 42.1321 152.287 42.3588C152.287 42.5856 152.377 42.767 152.512 42.903C152.693 43.0391 152.873 43.1298 153.144 43.1298C153.414 43.1298 153.684 43.0391 153.955 42.8577C154.135 42.7216 154.271 42.5402 154.316 42.3588C154.361 42.2228 154.361 41.996 154.361 41.5878V41.3157H154.406Z" fill="white"/>
<path d="M162.701 44.1281H161.168V41.1349C161.168 40.4999 161.123 40.0918 161.078 39.9103C161.033 39.7289 160.898 39.5929 160.762 39.4568C160.627 39.3661 160.447 39.3208 160.222 39.3208C159.951 39.3208 159.726 39.4115 159.5 39.5475C159.275 39.6836 159.14 39.9103 159.049 40.1371C158.959 40.3639 158.914 40.8174 158.914 41.4977V44.1281H157.381V38.2777H158.824V39.1394C159.32 38.4591 159.951 38.1416 160.717 38.1416C161.078 38.1416 161.349 38.187 161.664 38.323C161.935 38.4591 162.16 38.5951 162.295 38.7765C162.431 38.9579 162.521 39.1847 162.611 39.4115C162.656 39.6382 162.701 40.001 162.701 40.4546V44.1281Z" fill="white"/>
<path d="M109.414 51.7924H110.271V51.3389C110.271 50.84 110.316 50.4772 110.406 50.2504C110.496 50.0237 110.721 49.7969 110.992 49.6608C111.262 49.5248 111.623 49.4341 112.074 49.4341C112.525 49.4341 112.93 49.4794 113.381 49.6155L113.156 50.7039C112.93 50.6586 112.66 50.6132 112.435 50.6132C112.209 50.6132 112.074 50.6586 111.939 50.7493C111.848 50.84 111.803 51.0668 111.803 51.3389V51.7471H112.93V52.9716H111.803V57.5975H110.271V52.9716H109.414V51.7924Z" fill="white"/>
<path d="M113.787 51.0211V49.5698H115.32V51.0211H113.787ZM113.787 57.6425V51.7921H115.32V57.6425H113.787Z" fill="white"/>
<path d="M122.217 57.6428H120.685V54.6495C120.685 54.0146 120.64 53.6064 120.594 53.425C120.549 53.2436 120.414 53.1075 120.279 52.9715C120.144 52.8808 119.963 52.8354 119.738 52.8354C119.467 52.8354 119.242 52.9261 119.017 53.0622C118.791 53.1982 118.656 53.425 118.566 53.6518C118.476 53.8785 118.431 54.332 118.431 55.0123V57.6428H116.898V51.7923H118.34V52.654C118.836 51.9737 119.467 51.6562 120.234 51.6562C120.594 51.6562 120.865 51.7016 121.18 51.8377C121.451 51.9737 121.676 52.1098 121.812 52.2912C121.947 52.4726 122.037 52.6994 122.127 52.9261C122.172 53.1529 122.217 53.5157 122.217 53.9692V57.6428Z" fill="white"/>
<path d="M124.922 53.561L123.525 53.2889C123.66 52.7446 123.931 52.2911 124.336 52.019C124.697 51.7469 125.283 51.6108 126.049 51.6108C126.726 51.6108 127.267 51.7015 127.582 51.8376C127.898 52.019 128.168 52.2004 128.304 52.4725C128.439 52.7446 128.529 53.1982 128.529 53.8785V55.6925C128.529 56.1914 128.574 56.5996 128.619 56.8264C128.664 57.0531 128.754 57.3252 128.89 57.5973H127.357C127.312 57.5066 127.267 57.3252 127.222 57.1438C127.176 57.0531 127.176 57.0078 127.176 56.9624C126.906 57.2345 126.635 57.4159 126.32 57.552C126.004 57.6881 125.689 57.7334 125.373 57.7334C124.787 57.7334 124.291 57.552 123.976 57.2345C123.615 56.9171 123.48 56.5089 123.48 56.01C123.48 55.6925 123.57 55.3751 123.705 55.1483C123.84 54.8762 124.066 54.6948 124.381 54.5587C124.652 54.4227 125.058 54.2866 125.599 54.1959C126.32 54.0599 126.816 53.9238 127.086 53.8331V53.697C127.086 53.3796 126.996 53.1982 126.861 53.0621C126.726 52.9261 126.455 52.8807 126.049 52.8807C125.779 52.8807 125.554 52.9261 125.418 53.0621C125.148 53.1075 125.013 53.2889 124.922 53.561ZM126.996 54.8309C126.816 54.8762 126.5 54.9669 126.049 55.0576C125.644 55.1483 125.328 55.239 125.193 55.3297C125.013 55.4658 124.877 55.6472 124.877 55.874C124.877 56.1007 124.967 56.2821 125.103 56.4182C125.283 56.5542 125.463 56.6449 125.734 56.6449C126.004 56.6449 126.275 56.5542 126.545 56.3728C126.726 56.2368 126.861 56.0554 126.906 55.874C126.951 55.7379 126.951 55.5111 126.951 55.103V54.8309H126.996Z" fill="white"/>
<path d="M135.291 57.6428H133.758V54.6495C133.758 54.0146 133.713 53.6064 133.668 53.425C133.623 53.2436 133.488 53.1075 133.353 52.9715C133.217 52.8808 133.037 52.8354 132.812 52.8354C132.541 52.8354 132.316 52.9261 132.09 53.0622C131.865 53.1982 131.73 53.425 131.639 53.6518C131.549 53.8785 131.504 54.332 131.504 55.0123V57.6428H129.971V51.7923H131.414V52.654C131.91 51.9737 132.541 51.6562 133.308 51.6562C133.668 51.6562 133.939 51.7016 134.254 51.8377C134.525 51.9737 134.75 52.1098 134.885 52.2912C135.021 52.4726 135.111 52.6994 135.201 52.9261C135.246 53.1529 135.291 53.5157 135.291 53.9692V57.6428Z" fill="white"/>
<path d="M136.328 55.9647L137.861 55.738C137.906 56.0554 138.041 56.2822 138.267 56.4182C138.447 56.5543 138.763 56.645 139.123 56.645C139.529 56.645 139.799 56.5543 140.025 56.4182C140.16 56.3275 140.205 56.1915 140.205 56.0101C140.205 55.874 140.16 55.7833 140.115 55.738C140.025 55.6473 139.845 55.6019 139.619 55.5112C138.357 55.2391 137.59 54.967 137.275 54.7402C136.824 54.4227 136.599 53.9692 136.599 53.425C136.599 52.9261 136.779 52.4726 137.185 52.1551C137.59 51.7923 138.176 51.6562 139.033 51.6562C139.845 51.6562 140.431 51.7923 140.791 52.0644C141.197 52.3365 141.422 52.6994 141.603 53.1982L140.16 53.4703C140.115 53.2436 139.98 53.0622 139.799 52.9261C139.619 52.7901 139.394 52.7447 139.078 52.7447C138.672 52.7447 138.402 52.7901 138.222 52.9261C138.086 53.0168 138.041 53.1075 138.041 53.2436C138.041 53.3343 138.086 53.4703 138.176 53.5157C138.312 53.6064 138.808 53.7425 139.619 53.9692C140.431 54.1506 141.017 54.3774 141.332 54.6495C141.648 54.9216 141.828 55.3298 141.828 55.7833C141.828 56.3275 141.603 56.7811 141.152 57.1892C140.701 57.5521 140.025 57.7788 139.168 57.7788C138.357 57.7788 137.771 57.5974 137.275 57.2799C136.734 56.9625 136.463 56.5089 136.328 55.9647Z" fill="white"/>
<path d="M146.471 55.7834L148.004 56.0555C147.824 56.5997 147.508 57.0532 147.057 57.3253C146.652 57.6428 146.111 57.7789 145.48 57.7789C144.488 57.7789 143.721 57.4614 143.225 56.7811C142.865 56.2369 142.639 55.5566 142.639 54.7856C142.639 53.8332 142.91 53.0622 143.406 52.518C143.902 51.9738 144.533 51.7017 145.299 51.7017C146.156 51.7017 146.832 51.9738 147.328 52.5634C147.824 53.1529 148.049 54.0146 148.049 55.1938H144.217C144.217 55.6473 144.353 56.0101 144.578 56.2822C144.803 56.5544 145.119 56.6451 145.48 56.6451C145.705 56.6451 145.93 56.5997 146.066 56.4637C146.246 56.2822 146.381 56.1008 146.471 55.7834ZM146.562 54.2414C146.562 53.7879 146.426 53.4704 146.201 53.1983C145.975 52.9715 145.705 52.8355 145.389 52.8355C145.074 52.8355 144.758 52.9715 144.578 53.1983C144.353 53.425 144.262 53.7879 144.262 54.196H146.562V54.2414Z" fill="white"/>
<path d="M155.803 55.7834L157.336 56.0555C157.156 56.5997 156.84 57.0532 156.389 57.3253C155.984 57.6428 155.443 57.7789 154.812 57.7789C153.82 57.7789 153.053 57.4614 152.557 56.7811C152.197 56.2369 151.971 55.5566 151.971 54.7856C151.971 53.8332 152.242 53.0622 152.738 52.518C153.234 51.9738 153.865 51.7017 154.631 51.7017C155.488 51.7017 156.164 51.9738 156.66 52.5634C157.156 53.1529 157.381 54.0146 157.381 55.1938H153.549C153.549 55.6473 153.685 56.0101 153.91 56.2822C154.135 56.5544 154.451 56.6451 154.812 56.6451C155.037 56.6451 155.262 56.5997 155.398 56.4637C155.578 56.2822 155.713 56.1008 155.803 55.7834ZM155.894 54.2414C155.894 53.7879 155.758 53.4704 155.533 53.1983C155.308 52.9715 155.037 52.8355 154.721 52.8355C154.406 52.8355 154.09 52.9715 153.91 53.1983C153.685 53.425 153.594 53.7879 153.594 54.196H155.894V54.2414Z" fill="white"/>
<path d="M164.008 57.643H162.566V56.7813C162.34 57.0987 162.07 57.3709 161.709 57.5069C161.394 57.6883 161.078 57.7337 160.717 57.7337C160.041 57.7337 159.455 57.4616 159.004 56.9173C158.508 56.3731 158.283 55.6021 158.283 54.6497C158.283 53.652 158.508 52.9263 158.959 52.3821C159.41 51.8832 159.996 51.6111 160.717 51.6111C161.349 51.6111 161.935 51.8832 162.385 52.4275V49.5249H163.918V57.643H164.008ZM159.906 54.6044C159.906 55.2393 159.996 55.6928 160.176 55.9649C160.402 56.3731 160.762 56.5545 161.213 56.5545C161.574 56.5545 161.89 56.4185 162.115 56.101C162.34 55.7835 162.476 55.33 162.476 54.7404C162.476 54.0601 162.34 53.6066 162.115 53.2891C161.89 52.9717 161.574 52.8356 161.168 52.8356C160.808 52.8356 160.492 52.9717 160.267 53.2891C160.041 53.5613 159.906 54.0148 159.906 54.6044Z" fill="white"/>
<path d="M165.541 51.0211V49.5698H167.074V51.0211H165.541ZM165.541 57.6425V51.7921H167.074V57.6425H165.541Z" fill="white"/>
<path d="M168.652 57.6425V49.5698H170.185V57.6425H168.652Z" fill="white"/>
<path d="M171.627 51.7923H173.025V52.6086C173.521 51.9737 174.152 51.6562 174.828 51.6562C175.189 51.6562 175.504 51.747 175.775 51.883C176.045 52.0191 176.271 52.2912 176.451 52.5633C176.721 52.2458 176.992 52.0191 177.262 51.883C177.578 51.747 177.894 51.6562 178.209 51.6562C178.615 51.6562 178.975 51.747 179.291 51.9284C179.607 52.1098 179.787 52.3365 179.967 52.6994C180.057 52.9261 180.148 53.3343 180.148 53.9239V57.6428H178.615V54.2867C178.615 53.6971 178.57 53.3343 178.434 53.1529C178.299 52.9261 178.074 52.8354 177.758 52.8354C177.533 52.8354 177.353 52.8808 177.172 53.0168C176.992 53.1529 176.857 53.3343 176.766 53.6064C176.676 53.8785 176.631 54.2867 176.631 54.8309V57.6428H175.098V54.4227C175.098 53.8332 175.053 53.4703 175.008 53.3343C174.963 53.1982 174.873 53.0622 174.738 52.9715C174.603 52.8808 174.467 52.8354 174.287 52.8354C174.062 52.8354 173.836 52.8808 173.656 53.0168C173.475 53.1529 173.34 53.3343 173.25 53.561C173.16 53.7878 173.115 54.196 173.115 54.7856V57.6428H171.582V51.7923H171.627Z" fill="white"/>
<path d="M185.062 55.7834L186.594 56.0555C186.414 56.5997 186.099 57.0532 185.648 57.3253C185.242 57.6428 184.701 57.7789 184.07 57.7789C183.078 57.7789 182.312 57.4614 181.816 56.7811C181.455 56.2369 181.23 55.5566 181.23 54.7856C181.23 53.8332 181.5 53.0622 181.996 52.518C182.492 51.9738 183.123 51.7017 183.89 51.7017C184.746 51.7017 185.422 51.9738 185.918 52.5634C186.414 53.1529 186.64 54.0146 186.64 55.1938H182.808C182.808 55.6473 182.943 56.0101 183.168 56.2822C183.394 56.5544 183.709 56.6451 184.07 56.6451C184.295 56.6451 184.521 56.5997 184.656 56.4637C184.881 56.2822 185.017 56.1008 185.062 55.7834ZM185.152 54.2414C185.152 53.7879 185.017 53.4704 184.791 53.1983C184.566 52.9715 184.295 52.8355 183.98 52.8355C183.664 52.8355 183.349 52.9715 183.168 53.1983C182.943 53.425 182.853 53.7879 182.853 54.196H185.152V54.2414Z" fill="white"/>
<path d="M187.902 57.6425V49.5698H189.435V53.8329L191.238 51.7921H193.131L191.148 53.9236L193.267 57.6425H191.599L190.156 55.0121L189.435 55.7831V57.6425H187.902Z" fill="white"/>
<path d="M196.873 51.7923V53.0168H195.836V55.3751C195.836 55.874 195.836 56.1461 195.881 56.1914C195.881 56.2821 195.926 56.3275 196.016 56.3728C196.107 56.4182 196.152 56.4635 196.287 56.4635C196.422 56.4635 196.648 56.4182 196.918 56.3275L197.053 57.5067C196.693 57.6427 196.287 57.7334 195.836 57.7334C195.566 57.7334 195.295 57.6881 195.07 57.5974C194.844 57.5067 194.664 57.3706 194.574 57.2345C194.484 57.0985 194.394 56.8717 194.348 56.645C194.303 56.4635 194.303 56.1007 194.303 55.5565V53.0168H193.582V51.7923H194.303V50.6131L195.836 49.7061V51.7923H196.873Z" fill="white"/>
<path d="M201.291 55.7834L202.824 56.0555C202.644 56.5997 202.328 57.0532 201.877 57.3253C201.472 57.6428 200.931 57.7789 200.299 57.7789C199.308 57.7789 198.541 57.4614 198.045 56.7811C197.685 56.2369 197.459 55.5566 197.459 54.7856C197.459 53.8332 197.73 53.0622 198.226 52.518C198.722 51.9738 199.353 51.7017 200.119 51.7017C200.976 51.7017 201.652 51.9738 202.148 52.5634C202.644 53.1529 202.869 54.0146 202.869 55.1938H199.037C199.037 55.6473 199.172 56.0101 199.398 56.2822C199.623 56.5544 199.939 56.6451 200.299 56.6451C200.525 56.6451 200.75 56.5997 200.885 56.4637C201.066 56.2822 201.201 56.1008 201.291 55.7834ZM201.381 54.2414C201.381 53.7879 201.246 53.4704 201.021 53.1983C200.795 52.9715 200.525 52.8355 200.209 52.8355C199.894 52.8355 199.578 52.9715 199.398 53.1983C199.172 53.425 199.082 53.7879 199.082 54.196H201.381V54.2414Z" fill="white"/>
<path d="M209.496 57.643H208.054V56.7813C207.828 57.0987 207.558 57.3709 207.197 57.5069C206.881 57.6883 206.566 57.7337 206.205 57.7337C205.529 57.7337 204.943 57.4616 204.492 56.9173C203.996 56.3731 203.771 55.6021 203.771 54.6497C203.771 53.652 203.996 52.9263 204.447 52.3821C204.898 51.8832 205.484 51.6111 206.205 51.6111C206.836 51.6111 207.422 51.8832 207.873 52.4275V49.5249H209.406V57.643H209.496ZM205.394 54.6044C205.394 55.2393 205.484 55.6928 205.664 55.9649C205.89 56.3731 206.25 56.5545 206.701 56.5545C207.062 56.5545 207.377 56.4185 207.603 56.101C207.828 55.7835 207.963 55.33 207.963 54.7404C207.963 54.0601 207.828 53.6066 207.603 53.2891C207.377 52.9717 207.062 52.8356 206.656 52.8356C206.295 52.8356 205.98 52.9717 205.754 53.2891C205.484 53.5613 205.394 54.0148 205.394 54.6044Z" fill="white"/>
<path d="M210.984 51.0211V49.5698H212.517V51.0211H210.984ZM210.984 57.6425V51.7921H212.517V57.6425H210.984Z" fill="white"/>
<path d="M215.582 57.6428H214.049V51.7923H215.492V52.6086C215.717 52.2005 215.943 51.9737 216.168 51.8377C216.349 51.7016 216.574 51.6562 216.845 51.6562C217.205 51.6562 217.521 51.747 217.836 51.9284L217.34 53.2889C217.07 53.1075 216.845 53.0168 216.619 53.0168C216.394 53.0168 216.213 53.0622 216.078 53.1982C215.943 53.3343 215.808 53.5157 215.717 53.8332C215.627 54.1506 215.582 54.7856 215.582 55.7833V57.6428Z" fill="white"/>
<path d="M218.467 57.6431V56.1011H220V57.6431H218.467Z" fill="white"/>
</g>
<defs>
<clipPath id="clip0_209_36850">
<rect width="220" height="66.7586" fill="white"/>
</clipPath>
</defs>
</svg>
