<svg width="119" height="31" viewBox="0 0 119 31" fill="none" xmlns="http://www.w3.org/2000/svg">
<g id="Logo">
<path id="Vector" d="M2.94104 27.8629H28.5911V2.21289H2.94104V27.8629ZM23.6541 12.5699H18.2341V7.14989H23.6541V12.5699ZM7.87704 7.14989H13.3001V17.5059H23.6541V22.9259H7.87704V7.14989ZM45.2941 2.21289C42.7575 2.21289 40.2779 2.96507 38.1689 4.3743C36.0598 5.78353 34.416 7.78652 33.4453 10.13C32.4746 12.4735 32.2207 15.0521 32.7155 17.5399C33.2104 20.0277 34.4318 22.3129 36.2254 24.1065C38.019 25.9002 40.3042 27.1216 42.792 27.6165C45.2799 28.1113 47.8585 27.8574 50.202 26.8867C52.5455 25.916 54.5484 24.2722 55.9577 22.1631C57.3669 20.054 58.1191 17.5744 58.1191 15.0379C58.1151 11.6377 56.7626 8.37793 54.3583 5.97364C51.954 3.56934 48.6943 2.21686 45.2941 2.21289ZM45.2941 22.9259C43.734 22.9259 42.2089 22.4633 40.9117 21.5965C39.6146 20.7298 38.6035 19.4979 38.0065 18.0565C37.4095 16.6152 37.2533 15.0292 37.5576 13.499C37.862 11.9689 38.6133 10.5634 39.7164 9.46023C40.8196 8.35708 42.2251 7.60582 43.7552 7.30146C45.2853 6.9971 46.8713 7.15331 48.3127 7.75033C49.754 8.34735 50.986 9.35838 51.8527 10.6556C52.7195 11.9527 53.1821 13.4778 53.1821 15.0379C53.1789 17.129 52.3468 19.1335 50.8682 20.6121C49.3896 22.0907 47.3851 22.9227 45.2941 22.9259ZM104.013 2.21289C101.476 2.2127 98.9968 2.9647 96.8876 4.37381C94.7784 5.78292 93.1345 7.78584 92.1636 10.1293C91.1928 12.4727 90.9386 15.0515 91.4334 17.5393C91.9281 20.0272 93.1495 22.3125 94.9431 24.1062C96.7366 25.8999 99.0218 27.1215 101.51 27.6164C103.997 28.1113 106.576 27.8574 108.92 26.8868C111.263 25.9161 113.266 24.2723 114.675 22.1632C116.085 20.0541 116.837 17.5745 116.837 15.0379C116.833 11.6379 115.481 8.37825 113.077 5.97399C110.673 3.56972 107.413 2.21713 104.013 2.21289ZM104.013 22.9259C102.453 22.9261 100.928 22.4636 99.6305 21.597C98.3332 20.7304 97.322 19.4985 96.7248 18.0572C96.1276 16.6159 95.9713 15.0298 96.2755 13.4996C96.5798 11.9695 97.331 10.5639 98.4341 9.46059C99.5372 8.35733 100.943 7.60597 102.473 7.30153C104.003 6.99709 105.589 7.15324 107.03 7.75024C108.472 8.34723 109.704 9.35825 110.571 10.6555C111.437 11.9527 111.9 13.4778 111.9 15.0379C111.897 17.1288 111.065 19.1331 109.586 20.6117C108.108 22.0903 106.104 22.9225 104.013 22.9259ZM74.6531 2.21289C72.1165 2.21289 69.6369 2.96507 67.5279 4.3743C65.4188 5.78353 63.775 7.78652 62.8043 10.13C61.8336 12.4735 61.5797 15.0521 62.0745 17.5399C62.5694 20.0277 63.7908 22.3129 65.5844 24.1065C67.378 25.9002 69.6632 27.1216 72.151 27.6165C74.6388 28.1113 77.2175 27.8574 79.561 26.8867C81.9045 25.916 83.9074 24.2722 85.3167 22.1631C86.7259 20.054 87.4781 17.5744 87.4781 15.0379C87.4741 11.6377 86.1216 8.37793 83.7173 5.97364C81.313 3.56934 78.0533 2.21686 74.6531 2.21289ZM74.6531 22.9259C73.1995 22.9266 71.7741 22.5257 70.534 21.7674C69.294 21.0091 68.2875 19.923 67.6258 18.6288C66.9642 17.3346 66.6729 15.8827 66.7843 14.4335C66.8957 12.9842 67.4053 11.5939 68.257 10.416C69.1087 9.23815 70.2693 8.3185 71.6106 7.7586C72.952 7.19869 74.422 7.02031 75.8583 7.24313C77.2947 7.46596 78.6415 8.08132 79.7502 9.02131C80.8589 9.96129 81.6863 11.1894 82.1411 12.5699H74.6531V17.5059H82.1411C81.6202 19.0812 80.6166 20.4526 79.2725 21.4254C77.9285 22.3983 76.3123 22.9232 74.6531 22.9259Z" fill="#394149"/>
</g>
</svg>
