<svg width="60" height="60" viewBox="0 0 60 60" fill="none" xmlns="http://www.w3.org/2000/svg">
<g clip-path="url(#clip0_209_36749)">
<path d="M21.4986 55.1139L20.7678 54.3832L17.9667 51.582L15.1656 54.3832L14.4348 55.1139C13.6612 55.8875 13.6612 57.1416 14.4348 57.9151C15.2083 58.6886 16.4625 58.6886 17.2359 57.9151L17.9667 57.1843L18.6975 57.9151C19.471 58.6886 20.7252 58.6886 21.4986 57.9151C22.2722 57.1416 22.2722 55.8875 21.4986 55.1139Z" fill="#FFD15B"/>
<path d="M48.2786 15.2793V35.7898C48.2786 36.9176 47.6493 37.9523 46.6484 38.4702L32.9357 45.5635C31.0944 46.5164 28.9061 46.5164 27.0648 45.5635L20.7188 42.2811L13.3522 38.4704C12.3513 37.9524 11.722 36.9177 11.722 35.7899V15.2793H48.2786Z" fill="#7A6D79"/>
<path d="M20.7188 17.7168V42.2815L13.3522 38.4708C12.3513 37.9529 11.722 36.9182 11.722 35.7904V17.7168H20.7188Z" fill="#685E68"/>
<path d="M48.2786 15.2793V29.1757L31.9413 38.0573C30.7307 38.7163 29.2701 38.7163 28.0594 38.0573L11.7222 29.1757V15.2793H48.2786Z" fill="#685E68"/>
<path d="M58.9601 16.6859L31.942 1.99848C30.7312 1.34035 29.2696 1.34035 28.0588 1.99848L1.04062 16.6859C-0.34606 17.4398 -0.34606 19.4304 1.04062 20.1841L28.0588 34.8716C29.2696 35.5297 30.7312 35.5297 31.942 34.8716L58.9602 20.1841C60.3468 19.4304 60.3468 17.4397 58.9601 16.6859Z" fill="#7A6D79"/>
<path d="M33.9619 3.09626C32.9364 2.80751 31.8254 2.9227 30.8685 3.44325L3.40072 18.3756C2.40627 18.9168 2.11365 20.0822 2.52146 20.99L1.0401 20.1845C-0.346699 19.4296 -0.346699 17.4394 1.0401 16.6858L28.0587 1.99821C29.2694 1.34044 30.7313 1.34044 31.942 1.99821L33.9619 3.09626Z" fill="#685E68"/>
<path d="M17.9667 47.7961C17.4666 47.7961 17.0613 47.3908 17.0613 46.8908V29.3851C17.0613 29.1301 17.1687 28.8869 17.3573 28.7154L29.3909 17.7651C29.7609 17.4285 30.3335 17.4555 30.67 17.8253C31.0065 18.1952 30.9796 18.7679 30.6097 19.1043L18.8722 29.7852V46.8908C18.8722 47.3908 18.4667 47.7961 17.9667 47.7961Z" fill="#FFD15B"/>
<path d="M17.9666 52.9694C19.645 52.9694 21.0055 51.6089 21.0055 49.9305C21.0055 48.2522 19.645 46.8916 17.9666 46.8916C16.2883 46.8916 14.9277 48.2522 14.9277 49.9305C14.9277 51.6089 16.2883 52.9694 17.9666 52.9694Z" fill="#FFD15B"/>
<path d="M19.1471 52.7304C18.7837 52.8837 18.3852 52.9682 17.9664 52.9682C16.2883 52.9682 14.9277 51.6076 14.9277 49.9295C14.9277 48.2503 16.2883 46.8896 17.9664 46.8896C18.3854 46.8896 18.7837 46.9741 19.1471 47.1274C18.0545 47.5887 17.2879 48.669 17.2879 49.9294C17.2879 51.1888 18.0545 52.2693 19.1471 52.7304Z" fill="#FFC344"/>
<path d="M49.4371 49.2772C48.634 49.2772 47.8579 48.9595 47.2836 48.385L41.3584 42.4599C40.1691 41.2705 40.1691 39.342 41.3584 38.1526C42.5479 36.9631 44.4764 36.9631 45.6659 38.1526L48.8938 41.3806L53.849 33.517C54.7459 32.0939 56.6269 31.6674 58.0496 32.5639C59.4728 33.4606 59.8995 35.3414 59.0027 36.7646L52.0141 47.8552C51.4635 48.7356 50.4754 49.2805 49.4371 49.2772Z" fill="#BBEC6C"/>
</g>
<defs>
<clipPath id="clip0_209_36749">
<rect width="60" height="60" fill="white"/>
</clipPath>
</defs>
</svg>
