<svg width="60" height="60" viewBox="0 0 60 60" fill="none" xmlns="http://www.w3.org/2000/svg">
<g id="fi_3135789" clip-path="url(#clip0_209_36762)">
<g id="Group">
<g id="Group_2">
<g id="Group_3">
<path id="Vector" d="M30.0612 58.1642L41.3527 54.9072C48.5729 49.2394 53.2123 40.4334 53.2123 30.5421C53.2123 15.3407 42.2565 2.6998 27.8106 0.0800781C12.2643 1.20168 0 14.1681 0 30.0002C0 38.3491 3.34793 45.8398 8.85188 51.2782L10.0897 52.4383L30.0612 58.1642Z" fill="#CBE2FF"/>
</g>
<g id="Group_4">
<path id="Vector_2" d="M30 0C28.7081 0 27.4352 0.0817969 26.1863 0.240234C40.9542 2.11383 52.3727 14.7234 52.3727 30C52.3727 41.2043 46.2303 50.9735 37.1294 56.1252L49.9097 52.4387C56.0987 46.9432 60 38.9278 60 30C60 13.4314 46.5685 0 30 0Z" fill="#BED8FB"/>
</g>
<g id="Group_5">
<g id="Group_6">
<g id="Group_7">
<g id="Group_8">
<g id="Group_9">
<g id="Group_10">
<path id="Vector_3" d="M39.2444 35.9749C41.2412 34.8039 42.4674 32.6614 42.4667 30.3467C42.4645 23.682 42.4634 20.0356 42.4634 20.0356C42.4634 13.1523 36.8834 7.57227 30.0001 7.57227C23.1167 7.57227 17.5367 13.1523 17.5367 20.0356C17.5367 20.0356 17.5357 23.6821 17.5334 30.3467C17.5326 32.6614 18.759 34.8039 20.7558 35.9749L22.1617 36.7994C24.5387 38.1935 27.2445 38.9284 30.0002 38.9284C32.7559 38.9284 35.4617 38.1935 37.8388 36.7994L39.2444 35.9749Z" fill="#EFC984"/>
<g id="Group_11">
<path id="Vector_4" d="M42.4633 20.0357C42.4633 14.8687 39.319 10.4362 34.8394 8.54688V38.1511C35.8796 37.8091 36.8858 37.3582 37.8384 36.7995L39.2443 35.975C41.2411 34.804 42.4673 32.6615 42.4666 30.3468C42.4645 23.6821 42.4633 20.0357 42.4633 20.0357Z" fill="#EABC6B"/>
</g>
<g id="Group_12">
<path id="Vector_5" d="M30 48.9963L37.9078 43.4315L34.7157 39.5653V30.752H25.2842V39.5653L22.0922 43.4315L30 48.9963Z" fill="#FFDDCE"/>
</g>
<path id="Vector_6" d="M45.4187 41.625L36.6857 39.9443C35.3068 42.1899 32.8283 43.6877 30 43.6877C27.1717 43.6877 24.6932 42.1899 23.3143 39.9443L14.5813 41.625C11.2555 42.2651 8.85199 45.1754 8.85199 48.5621V51.2778C13.5289 55.9262 19.7302 59.0418 26.6396 59.8118C27.1578 59.8696 27.6823 59.8379 28.1914 59.7256L30.4127 59.2357C30.9398 59.1195 31.487 59.1299 32.0093 59.2662C32.734 59.4552 33.5009 59.4009 34.1918 59.1118C40.9936 56.2659 46.5639 51.0644 49.8803 44.5244C48.8564 43.0557 47.2825 41.9838 45.4187 41.625Z" fill="#4A80AA"/>
<path id="Vector_7" d="M51.148 48.5623C51.148 46.6501 50.3815 44.89 49.1156 43.6045C44.7051 52.2569 36.2209 58.4855 26.1893 59.7593C27.4051 59.9134 28.6434 59.9956 29.9001 59.9997H29.9032C29.9422 59.9998 30.0413 60 30.0965 59.9997H30.0996C38.3113 59.973 45.746 56.647 51.1479 51.278V48.5623H51.148Z" fill="#407093"/>
<path id="Vector_8" d="M30.6068 59.1936C31.7243 55.9584 34.0442 48.6409 34.596 42.1992C33.3046 43.1354 31.7171 43.6882 30 43.6882C28.283 43.6882 26.6955 43.1354 25.4041 42.1992C25.9704 48.8111 28.3998 56.3467 29.4795 59.4422L30.6068 59.1936Z" fill="#E28086"/>
<path id="Vector_9" d="M29.3869 59.1751C29.4948 59.4876 29.5919 59.7634 29.6749 59.9962C30.2901 60.0027 30.0762 59.9988 30.3251 59.9962C30.4385 59.6785 30.5776 59.2816 30.7355 58.8184C30.2901 58.9475 29.8405 59.0664 29.3869 59.1751Z" fill="#DD636E"/>
<path id="Vector_10" d="M38.3583 19.2017C35.0281 15.615 34.4098 12.3564 34.4098 12.3564C32.7556 16.6971 28.5543 19.7809 23.6327 19.7809C23.4822 19.7809 23.3323 19.7779 23.1831 19.7723C22.0506 19.7288 21.11 20.6366 21.11 21.7699V25.4109C21.1833 30.2593 25.134 34.1677 30 34.1677C34.8659 34.1677 38.8166 30.2594 38.89 25.4109V20.5587C38.89 20.0558 38.7005 19.5703 38.3583 19.2017Z" fill="#FFDDCE"/>
<path id="Vector_11" d="M38.3583 19.2019C36.3577 17.0472 35.3365 15.012 34.8394 13.7295V25.0096C34.772 29.4632 31.4323 33.1211 27.1177 33.6877C28.0218 33.9975 28.9907 34.1679 30 34.1679C34.8659 34.1679 38.8166 30.2595 38.89 25.4111V20.5589C38.89 20.056 38.7005 19.5705 38.3583 19.2019Z" fill="#FFCBBE"/>
</g>
</g>
<g id="Group_13">
<path id="Vector_12" d="M20.1421 40.248C19.7625 40.4806 19.687 41.0007 19.9849 41.3315L21.834 43.3854C22.0984 43.6791 22.0731 44.1318 21.7778 44.3942L20.5586 45.4775C20.3025 45.7049 20.1759 46.0485 20.2363 46.3855C20.9175 50.1913 27.0063 57.4601 29.2091 59.9898C29.3644 59.9936 29.5199 59.9963 29.6757 59.9979C28.6102 57.013 25.2841 47.0937 25.2841 39.5651V37.0967L20.1421 40.248Z" fill="#365E7D"/>
<path id="Vector_13" d="M39.858 40.2478L34.716 37.0967V39.5651C34.716 47.0937 31.39 57.013 30.3244 59.9979C30.4803 59.9964 30.6358 59.9937 30.791 59.9898C32.9938 57.4601 39.0826 50.1913 39.7639 46.3855C39.8242 46.0484 39.6975 45.7049 39.4416 45.4775L38.2224 44.3942C37.9269 44.1318 37.9017 43.6791 38.1661 43.3854L40.0152 41.3315C40.313 41.0005 40.2375 40.4805 39.858 40.2478Z" fill="#365E7D"/>
</g>
</g>
<path id="Vector_14" d="M40.2377 20.5732H38.8898V25.0264H40.2377C41.4677 25.0264 42.4646 24.0291 42.4643 22.7991C42.4639 21.5698 41.4671 20.5732 40.2377 20.5732Z" fill="#FFDDCE"/>
</g>
</g>
</g>
</g>
</g>
<g id="Rectangle 588" style="mix-blend-mode:color">
<rect width="60" height="60" fill="#E74238"/>
</g>
</g>
<defs>
<clipPath id="clip0_209_36762">
<rect width="60" height="60" fill="white"/>
</clipPath>
</defs>
</svg>
